<svg width="19" height="19" viewBox="0 0 19 19" fill="none" xmlns="http://www.w3.org/2000/svg">
<path fill-rule="evenodd" clip-rule="evenodd" d="M8.70833 3.375C5.76281 3.375 3.375 5.76281 3.375 8.70833C3.375 11.6539 5.76281 14.0417 8.70833 14.0417C11.6539 14.0417 14.0417 11.6539 14.0417 8.70833C14.0417 5.76281 11.6539 3.375 8.70833 3.375ZM1.375 8.70833C1.375 4.65825 4.65825 1.375 8.70833 1.375C12.7584 1.375 16.0417 4.65825 16.0417 8.70833C16.0417 12.7584 12.7584 16.0417 8.70833 16.0417C4.65825 16.0417 1.375 12.7584 1.375 8.70833Z" fill="white"/>
<path fill-rule="evenodd" clip-rule="evenodd" d="M12.474 12.4742C12.8646 12.0836 13.4977 12.0836 13.8883 12.4742L17.332 15.9179C17.7225 16.3084 17.7225 16.9416 17.332 17.3321C16.9415 17.7227 16.3083 17.7227 15.9178 17.3321L12.474 13.8884C12.0835 13.4979 12.0835 12.8647 12.474 12.4742Z" fill="white"/>
</svg>
