<svg width="71" height="54" viewBox="0 0 71 54" fill="none" xmlns="http://www.w3.org/2000/svg">
<path d="M48.8125 15.5312C48.8125 14.9428 49.0463 14.3785 49.4624 13.9624C49.8785 13.5463 50.4428 13.3125 51.0312 13.3125H59.9062C60.4947 13.3125 61.059 13.5463 61.4751 13.9624C61.8912 14.3785 62.125 14.9428 62.125 15.5312V19.9688C62.125 20.5572 61.8912 21.1215 61.4751 21.5376C61.059 21.9537 60.4947 22.1875 59.9062 22.1875H51.0312C50.4428 22.1875 49.8785 21.9537 49.4624 21.5376C49.0463 21.1215 48.8125 20.5572 48.8125 19.9688V15.5312Z" fill="#FFA836"/>
<path d="M8.875 0C6.5212 0 4.26381 0.935042 2.59943 2.59943C0.935042 4.26381 0 6.5212 0 8.875L0 44.375C0 46.7288 0.935042 48.9862 2.59943 50.6506C4.26381 52.315 6.5212 53.25 8.875 53.25H62.125C64.4788 53.25 66.7362 52.315 68.4006 50.6506C70.065 48.9862 71 46.7288 71 44.375V8.875C71 6.5212 70.065 4.26381 68.4006 2.59943C66.7362 0.935042 64.4788 0 62.125 0H8.875ZM66.5625 8.875V31.0625H4.4375V8.875C4.4375 7.6981 4.90502 6.56941 5.73721 5.73721C6.56941 4.90502 7.6981 4.4375 8.875 4.4375H62.125C63.3019 4.4375 64.4306 4.90502 65.2628 5.73721C66.095 6.56941 66.5625 7.6981 66.5625 8.875ZM62.125 48.8125H8.875C7.6981 48.8125 6.56941 48.345 5.73721 47.5128C4.90502 46.6806 4.4375 45.5519 4.4375 44.375V39.9375H66.5625V44.375C66.5625 45.5519 66.095 46.6806 65.2628 47.5128C64.4306 48.345 63.3019 48.8125 62.125 48.8125Z" fill="#FFA836"/>
</svg>
