<svg width="21" height="21" viewBox="0 0 21 21" fill="none" xmlns="http://www.w3.org/2000/svg">
<g clip-path="url(#clip0_37_792)">
<path d="M14.4375 0C13.0988 0 11.9438 0.91875 11.235 2.31C12.4163 3.7275 13.125 5.67 13.125 7.90125C13.125 8.6625 13.0463 9.345 12.8888 10.0275C13.3875 10.3162 13.8862 10.5263 14.4375 10.5263C16.6162 10.5263 18.375 8.16375 18.375 5.27625C18.375 2.38875 16.6162 0.02625 14.4375 0.02625V0ZM6.5625 2.625C4.38375 2.625 2.625 4.9875 2.625 7.875C2.625 10.7625 4.38375 13.125 6.5625 13.125C8.74125 13.125 10.5 10.7625 10.5 7.875C10.5 4.9875 8.74125 2.625 6.5625 2.625ZM19.0312 10.92C17.9025 12.2587 16.3538 13.0725 14.595 13.125C15.3038 14.1225 15.75 15.33 15.75 16.6425V18.375H21V14.0175C21 12.6525 20.1863 11.4713 19.0312 10.8938V10.92ZM1.96875 13.545C0.81375 14.1225 0 15.3037 0 16.6687V21.0263H13.125V16.6687C13.125 15.3037 12.3112 14.1225 11.1562 13.545C9.975 14.9362 8.37375 15.75 6.5625 15.75C4.75125 15.75 3.15 14.91 1.96875 13.545Z" fill="#3A332C"/>
</g>
<defs>
<clipPath id="clip0_37_792">
<rect width="21" height="21" fill="white"/>
</clipPath>
</defs>
</svg>
