<svg width="24" height="24" viewBox="0 0 24 24" fill="none" xmlns="http://www.w3.org/2000/svg">
<g clip-path="url(#clip0_26_200)">
<path d="M22.5998 1.164C21.7826 0.381003 20.8813 -0.0157471 19.919 -0.0157471C18.4145 -0.0157471 17.3169 0.956253 17.0165 1.254C16.5939 1.6725 2.17698 16.0946 2.17698 16.0946C2.08249 16.1896 2.01428 16.3074 1.979 16.4366C1.65388 17.6381 0.0252516 22.9691 0.00907974 23.0228C-0.0745218 23.2958 7.97436e-05 23.5932 0.201455 23.7945C0.343507 23.9362 0.535936 24.0157 0.736556 24.0158C0.814181 24.0158 0.892533 24.0041 0.969033 23.979C1.02416 23.961 6.52691 22.1824 7.43251 21.912C7.552 21.876 7.6609 21.8114 7.74976 21.7238C8.32201 21.1583 21.7684 7.8615 22.6609 6.93975C23.5841 5.98838 24.0428 4.99763 24.0251 3.99563C24.0068 3.00638 23.5271 2.05388 22.5998 1.164ZM16.7776 3.6525C17.1598 3.74513 18.0609 4.04771 18.9811 4.97623C19.9111 5.91448 20.1628 6.98698 20.2097 7.23111C17.2607 10.1647 10.4724 16.881 7.7964 19.5281C7.54927 18.9525 7.1499 18.2591 6.5075 17.6119C5.72303 16.8214 4.92463 16.3748 4.30888 16.1235C6.95713 13.4749 13.8733 6.55575 16.7776 3.6525ZM3.2904 17.3895C3.70253 17.499 4.55863 17.8166 5.43127 18.6963C6.10327 19.374 6.42053 20.1213 6.56303 20.577C5.52053 20.9122 3.2379 21.7001 1.7874 22.1677C2.21715 20.7536 2.94313 18.5512 3.2904 17.3895ZM21.5724 5.86796C21.5251 5.9162 21.4777 5.96432 21.4302 6.01233C21.1932 5.40181 20.7773 4.61733 20.0573 3.89133C19.3216 3.14958 18.5754 2.71196 17.9773 2.45321C18.0282 2.40258 18.0676 2.36281 18.083 2.34783C18.1689 2.26306 18.9478 1.51871 19.9186 1.51871C20.4774 1.51871 21.026 1.77371 21.5503 2.27621C22.1716 2.87208 22.4919 3.46008 22.5024 4.02446C22.5125 4.60046 22.1997 5.22071 21.5724 5.86796Z" fill="#3A332C"/>
</g>
<defs>
<clipPath id="clip0_26_200">
<rect width="24" height="24" fill="white"/>
</clipPath>
</defs>
</svg>
