<svg width="24" height="24" viewBox="0 0 24 24" fill="none" xmlns="http://www.w3.org/2000/svg">
<path d="M19 16.28V11L22 8L18 4L15 7H8V6H11V2H3V6H6V12H3V16H6V21H10.28C10.4545 21.3023 10.7051 21.5536 11.0068 21.7291C11.3086 21.9045 11.651 21.9979 12 22C12.3516 22.0021 12.6975 21.9115 13.0029 21.7373C13.3083 21.5631 13.5624 21.3115 13.7395 21.0078C13.9167 20.7042 14.0107 20.3591 14.012 20.0076C14.0133 19.656 13.922 19.3103 13.7471 19.0053C13.5722 18.7003 13.32 18.4467 13.016 18.2703C12.7119 18.0938 12.3666 18.0006 12.0151 18C11.6635 17.9995 11.318 18.0917 11.0134 18.2672C10.7088 18.4428 10.4558 18.6955 10.28 19H8V16H11V12H8V9H15L17 11V16.27C16.6187 16.4901 16.3207 16.8299 16.1522 17.2367C15.9838 17.6434 15.9542 18.0944 16.0681 18.5197C16.1821 18.945 16.4332 19.3207 16.7825 19.5888C17.1318 19.8568 17.5597 20.0021 18 20.0021C18.4403 20.0021 18.8682 19.8568 19.2175 19.5888C19.5668 19.3207 19.8179 18.945 19.9319 18.5197C20.0458 18.0944 20.0162 17.6434 19.8478 17.2367C19.6793 16.8299 19.3813 16.4901 19 16.27V16.28ZM4 5V3H10V5H4ZM12 19C12.1978 19 12.3911 19.0586 12.5556 19.1685C12.72 19.2784 12.8482 19.4346 12.9239 19.6173C12.9996 19.8 13.0194 20.0011 12.9808 20.1951C12.9422 20.3891 12.847 20.5673 12.7071 20.7071C12.5673 20.847 12.3891 20.9422 12.1951 20.9808C12.0011 21.0194 11.8 20.9996 11.6173 20.9239C11.4346 20.8482 11.2784 20.72 11.1685 20.5556C11.0586 20.3911 11 20.1978 11 20C11 19.7348 11.1054 19.4804 11.2929 19.2929C11.4804 19.1054 11.7348 19 12 19ZM10 13V15H4V13H10ZM18 5.41L20.59 8L18 10.59L15.41 8L18 5.41ZM18 19C17.8022 19 17.6089 18.9414 17.4444 18.8315C17.28 18.7216 17.1518 18.5654 17.0761 18.3827C17.0004 18.2 16.9806 17.9989 17.0192 17.8049C17.0578 17.6109 17.153 17.4327 17.2929 17.2929C17.4327 17.153 17.6109 17.0578 17.8049 17.0192C17.9989 16.9806 18.2 17.0004 18.3827 17.0761C18.5654 17.1518 18.7216 17.28 18.8315 17.4444C18.9414 17.6089 19 17.8022 19 18C19 18.2652 18.8946 18.5196 18.7071 18.7071C18.5196 18.8946 18.2652 19 18 19Z" fill="white"/>
</svg>
