<svg width="41" height="41" viewBox="0 0 41 41" fill="none" xmlns="http://www.w3.org/2000/svg">
<path d="M14.35 7.84646C14.6644 7.28056 15.1244 6.80902 15.6823 6.48072C16.2403 6.15241 16.8759 5.97927 17.5232 5.97925H23.4768C24.1241 5.97927 24.7597 6.15241 25.3177 6.48072C25.8756 6.80902 26.3356 7.28056 26.65 7.84646L27.7485 9.823H30.9635C32.2661 9.823 33.5154 10.3405 34.4365 11.2615C35.3575 12.1826 35.875 13.4319 35.875 14.7345V20.5377C34.0905 19.3945 32.0151 18.7885 29.8958 18.7917C28.8871 18.7917 27.909 18.9267 26.9797 19.1787C26.6003 18.0499 25.9324 17.0399 25.0423 16.2487C24.1523 15.4575 23.0709 14.9127 21.9054 14.6682C20.7399 14.4238 19.5307 14.4881 18.3978 14.8549C17.2648 15.2217 16.2473 15.8782 15.4463 16.7594C14.6452 17.6406 14.0883 18.7158 13.8309 19.8785C13.5734 21.0412 13.6242 22.251 13.9783 23.388C14.3324 24.525 14.9775 25.5497 15.8497 26.3606C16.7219 27.1714 17.7908 27.7403 18.9505 28.0108C18.5965 30.087 18.8364 32.2209 19.6424 34.1667H10.0365C8.73386 34.1667 7.48461 33.6493 6.56353 32.7282C5.64246 31.8071 5.125 30.5579 5.125 29.2553V14.7345C5.125 13.4319 5.64246 12.1826 6.56353 11.2615C7.48461 10.3405 8.73386 9.823 10.0365 9.823H13.2515L14.35 7.84646ZM20.5 16.6563C19.3388 16.6547 18.2181 17.0832 17.3542 17.8592C16.4903 18.6351 15.9444 19.7035 15.8218 20.8583C15.6992 22.013 16.0086 23.1722 16.6903 24.1123C17.372 25.0523 18.3778 25.7066 19.5134 25.9488C20.5138 23.328 22.466 21.1809 24.9801 19.9363C24.6784 18.9847 24.0816 18.1539 23.2761 17.5641C22.4706 16.9744 21.4983 16.6565 20.5 16.6563ZM29.8958 39.2917C35.0849 39.2917 39.2917 35.085 39.2917 29.8959C39.2917 24.7069 35.0849 20.5001 29.8958 20.5001C24.7068 20.5001 20.5 24.7069 20.5 29.8959C20.5 35.085 24.7068 39.2917 29.8958 39.2917ZM29.8958 23.9167C30.1224 23.9167 30.3396 24.0067 30.4998 24.1669C30.66 24.3271 30.75 24.5444 30.75 24.7709V29.0417H35.0208C35.2474 29.0417 35.4646 29.1317 35.6248 29.2919C35.785 29.4521 35.875 29.6694 35.875 29.8959C35.875 30.1225 35.785 30.3397 35.6248 30.4999C35.4646 30.6601 35.2474 30.7501 35.0208 30.7501H30.75V35.0209C30.75 35.2475 30.66 35.4647 30.4998 35.6249C30.3396 35.7851 30.1224 35.8751 29.8958 35.8751C29.6693 35.8751 29.452 35.7851 29.2918 35.6249C29.1317 35.4647 29.0417 35.2475 29.0417 35.0209V30.7501H24.7708C24.5443 30.7501 24.327 30.6601 24.1668 30.4999C24.0067 30.3397 23.9167 30.1225 23.9167 29.8959C23.9167 29.6694 24.0067 29.4521 24.1668 29.2919C24.327 29.1317 24.5443 29.0417 24.7708 29.0417H29.0417V24.7709C29.0417 24.5444 29.1317 24.3271 29.2918 24.1669C29.452 24.0067 29.6693 23.9167 29.8958 23.9167Z" fill="white"/>
</svg>
