<svg width="24" height="24" viewBox="0 0 24 24" fill="none" xmlns="http://www.w3.org/2000/svg">
<path fill-rule="evenodd" clip-rule="evenodd" d="M14.586 4.49976C14.9611 4.12481 15.4697 3.91418 16 3.91418C16.5303 3.91418 17.0389 4.12481 17.414 4.49976L19.5001 6.58586C19.875 6.96092 20.0858 7.46964 20.0858 7.99997C20.0858 8.5303 19.8752 9.03892 19.5002 9.41397L8.20711 20.7071C8.01957 20.8946 7.76522 21 7.5 21H4C3.44772 21 3 20.5523 3 20V16.5C3 16.2348 3.10536 15.9804 3.29289 15.7929L14.586 4.49976ZM5 16.9142V19H7.08579L15.3358 10.75L13.25 8.66418L5 16.9142ZM14.6642 7.24997L16.75 9.33576L18.0858 7.99997L16 5.91418L14.6642 7.24997Z" fill="#3A332C"/>
</svg>
