<svg width="21" height="21" viewBox="0 0 21 21" fill="none" xmlns="http://www.w3.org/2000/svg">
<path d="M12.7686 4.63146C13.657 4.80447 14.4735 5.23815 15.1136 5.877C15.7537 6.51585 16.1882 7.33079 16.3615 8.21754M12.7686 0.999997C14.6144 1.20466 16.3357 2.02968 17.6497 3.33958C18.9638 4.64948 19.7926 6.36641 19.9999 8.20846M19.0903 15.4532V18.1768C19.0914 18.4297 19.0395 18.68 18.938 18.9116C18.8365 19.1433 18.6877 19.3512 18.501 19.5222C18.3143 19.6931 18.0939 19.8232 17.854 19.9042C17.614 19.9852 17.3597 20.0153 17.1074 19.9926C14.3084 19.689 11.6197 18.7344 9.2575 17.2054C7.05974 15.8115 5.19642 13.9518 3.79987 11.7582C2.26262 9.38978 1.30595 6.69323 1.00738 3.88701C0.98465 3.63596 1.01454 3.38293 1.09516 3.14404C1.17577 2.90515 1.30534 2.68562 1.47561 2.49945C1.64589 2.31327 1.85314 2.16453 2.08416 2.06268C2.31519 1.96082 2.56493 1.9081 2.8175 1.90786H5.54631C5.98775 1.90353 6.4157 2.05955 6.75041 2.34685C7.08512 2.63415 7.30374 3.03312 7.36552 3.4694C7.4807 4.34101 7.6943 5.19682 8.00225 6.0205C8.12463 6.34545 8.15111 6.6986 8.07857 7.03811C8.00602 7.37762 7.83748 7.68926 7.59292 7.9361L6.43772 9.08909C7.7326 11.362 9.61812 13.2439 11.8954 14.5363L13.0506 13.3833C13.2979 13.1392 13.6101 12.971 13.9503 12.8986C14.2904 12.8262 14.6443 12.8526 14.9698 12.9748C15.7951 13.2821 16.6525 13.4953 17.5258 13.6103C17.9677 13.6725 18.3712 13.8946 18.6597 14.2344C18.9481 14.5742 19.1014 15.008 19.0903 15.4532Z" stroke="#FFA836" stroke-width="2" stroke-linecap="round" stroke-linejoin="round"/>
</svg>
