<svg width="29" height="26" viewBox="0 0 29 26" fill="none" xmlns="http://www.w3.org/2000/svg">
<path d="M2.9 2.88889H7.25L10.15 0H18.85L21.75 2.88889H26.1C26.8691 2.88889 27.6068 3.19325 28.1506 3.73502C28.6945 4.2768 29 5.0116 29 5.77778V23.1111C29 23.8773 28.6945 24.6121 28.1506 25.1539C27.6068 25.6956 26.8691 26 26.1 26H2.9C2.13087 26 1.39325 25.6956 0.84939 25.1539C0.305535 24.6121 0 23.8773 0 23.1111V5.77778C0 5.0116 0.305535 4.2768 0.84939 3.73502C1.39325 3.19325 2.13087 2.88889 2.9 2.88889ZM14.5 7.22222C12.5772 7.22222 10.7331 7.98313 9.37348 9.33756C8.01384 10.692 7.25 12.529 7.25 14.4444C7.25 16.3599 8.01384 18.1969 9.37348 19.5513C10.7331 20.9058 12.5772 21.6667 14.5 21.6667C16.4228 21.6667 18.2669 20.9058 19.6265 19.5513C20.9862 18.1969 21.75 16.3599 21.75 14.4444C21.75 12.529 20.9862 10.692 19.6265 9.33756C18.2669 7.98313 16.4228 7.22222 14.5 7.22222ZM14.5 10.1111C15.6537 10.1111 16.7601 10.5677 17.5759 11.3803C18.3917 12.193 18.85 13.2952 18.85 14.4444C18.85 15.5937 18.3917 16.6959 17.5759 17.5086C16.7601 18.3212 15.6537 18.7778 14.5 18.7778C13.3463 18.7778 12.2399 18.3212 11.4241 17.5086C10.6083 16.6959 10.15 15.5937 10.15 14.4444C10.15 13.2952 10.6083 12.193 11.4241 11.3803C12.2399 10.5677 13.3463 10.1111 14.5 10.1111Z" fill="white"/>
</svg>
