<svg width="35" height="35" viewBox="0 0 35 35" fill="none" xmlns="http://www.w3.org/2000/svg">
<path d="M22.75 11.375C22.75 10.2147 22.2891 9.10188 21.4686 8.28141C20.6481 7.46094 19.5353 7 18.375 7H7.875C6.71468 7 5.60188 7.46094 4.78141 8.28141C3.96094 9.10188 3.5 10.2147 3.5 11.375V23.625C3.5 24.7853 3.96094 25.8981 4.78141 26.7186C5.60188 27.5391 6.71468 28 7.875 28H18.375C19.5353 28 20.6481 27.5391 21.4686 26.7186C22.2891 25.8981 22.75 24.7853 22.75 23.625V11.375ZM24.5 13.8775V21.1435L29.337 25.256C29.528 25.4185 29.7614 25.5228 30.0099 25.5568C30.2583 25.5907 30.5112 25.5528 30.7387 25.4475C30.9663 25.3422 31.1589 25.1739 31.2938 24.9626C31.4287 24.7513 31.5003 24.5057 31.5 24.255V10.8377C31.4996 10.5885 31.4282 10.3445 31.2942 10.1344C31.1602 9.92421 30.9691 9.75655 30.7433 9.651C30.5175 9.54544 30.2664 9.50636 30.0192 9.53833C29.772 9.57029 29.539 9.67198 29.3475 9.8315L24.5 13.8775Z" fill="#FFA836"/>
</svg>
