<svg width="15" height="20" viewBox="0 0 15 20" fill="none" xmlns="http://www.w3.org/2000/svg">
<path d="M7.5 12.6316C9.27857 12.6316 10.7036 11.2211 10.7036 9.47368L10.7143 3.15789C10.7143 1.41053 9.27857 0 7.5 0C5.72143 0 4.28571 1.41053 4.28571 3.15789V9.47368C4.28571 11.2211 5.72143 12.6316 7.5 12.6316ZM6.21429 3.05263C6.21429 2.35789 6.79286 1.78947 7.5 1.78947C8.20714 1.78947 8.78571 2.35789 8.78571 3.05263L8.775 9.57895C8.775 10.2737 8.20714 10.8421 7.5 10.8421C6.79286 10.8421 6.21429 10.2737 6.21429 9.57895V3.05263ZM13.1786 9.47368C13.1786 12.6316 10.4571 14.8421 7.5 14.8421C4.54286 14.8421 1.82143 12.6316 1.82143 9.47368H0C0 13.0632 2.91429 16.0316 6.42857 16.5474V20H8.57143V16.5474C12.0857 16.0421 15 13.0737 15 9.47368H13.1786Z" fill="#8C8C8C"/>
</svg>
