<svg width="119" height="16" viewBox="0 0 119 16" fill="none" xmlns="http://www.w3.org/2000/svg">
<path d="M113.403 6.93488V12.1274H111.701V3.38209H113.335V4.80548H113.443C113.644 4.34241 113.959 3.97043 114.388 3.68954C114.821 3.40866 115.366 3.26822 116.022 3.26822C116.618 3.26822 117.14 3.39348 117.588 3.644C118.036 3.89072 118.383 4.2589 118.63 4.74855C118.877 5.23819 119 5.84361 119 6.5648V12.1274H117.298V6.76976C117.298 6.13588 117.132 5.64054 116.802 5.28374C116.472 4.92315 116.018 4.74285 115.441 4.74285C115.047 4.74285 114.696 4.82826 114.388 4.99906C114.084 5.16987 113.843 5.42039 113.665 5.75062C113.49 6.07705 113.403 6.4718 113.403 6.93488Z" fill="#3A332C"/>
<path d="M105.724 12.3039C104.904 12.3039 104.189 12.116 103.577 11.7403C102.966 11.3645 102.492 10.8388 102.154 10.1631C101.816 9.4875 101.647 8.69799 101.647 7.79461C101.647 6.88743 101.816 6.09413 102.154 5.4147C102.492 4.73526 102.966 4.20766 103.577 3.83188C104.189 3.45611 104.904 3.26822 105.724 3.26822C106.544 3.26822 107.259 3.45611 107.87 3.83188C108.481 4.20766 108.956 4.73526 109.294 5.4147C109.632 6.09413 109.8 6.88743 109.8 7.79461C109.8 8.69799 109.632 9.4875 109.294 10.1631C108.956 10.8388 108.481 11.3645 107.87 11.7403C107.259 12.116 106.544 12.3039 105.724 12.3039ZM105.73 10.8748C106.261 10.8748 106.701 10.7344 107.05 10.4535C107.4 10.1726 107.658 9.79874 107.825 9.33187C107.996 8.865 108.081 8.35068 108.081 7.78891C108.081 7.23094 107.996 6.71852 107.825 6.25165C107.658 5.78098 107.4 5.40331 107.05 5.11863C106.701 4.83395 106.261 4.69161 105.73 4.69161C105.194 4.69161 104.75 4.83395 104.397 5.11863C104.048 5.40331 103.788 5.78098 103.617 6.25165C103.45 6.71852 103.367 7.23094 103.367 7.78891C103.367 8.35068 103.45 8.865 103.617 9.33187C103.788 9.79874 104.048 10.1726 104.397 10.4535C104.75 10.7344 105.194 10.8748 105.73 10.8748Z" fill="#3A332C"/>
<path d="M98.0477 12.1273V3.38198H99.75V12.1273H98.0477ZM98.9074 2.0326C98.6113 2.0326 98.357 1.93392 98.1445 1.73654C97.9357 1.53537 97.8313 1.29624 97.8313 1.01915C97.8313 0.738266 97.9357 0.499136 98.1445 0.301759C98.357 0.100586 98.6113 0 98.9074 0C99.2035 0 99.4559 0.100586 99.6646 0.301759C99.8772 0.499136 99.9835 0.738266 99.9835 1.01915C99.9835 1.29624 99.8772 1.53537 99.6646 1.73654C99.4559 1.93392 99.2035 2.0326 98.9074 2.0326Z" fill="#3A332C"/>
<path d="M96.1643 3.38207V4.74853H91.3873V3.38207H96.1643ZM92.6684 1.28684H94.3708V9.55959C94.3708 9.88982 94.4201 10.1384 94.5188 10.3054C94.6175 10.4687 94.7447 10.5806 94.9003 10.6414C95.0597 10.6983 95.2324 10.7268 95.4184 10.7268C95.555 10.7268 95.6746 10.7173 95.7771 10.6983C95.8796 10.6793 95.9593 10.6641 96.0162 10.6528L96.3237 12.0591C96.225 12.097 96.0845 12.135 95.9023 12.1729C95.7202 12.2147 95.4924 12.2375 95.2191 12.2413C94.7712 12.2489 94.3537 12.1691 93.9665 12.0021C93.5794 11.8351 93.2662 11.577 93.0271 11.2278C92.788 10.8786 92.6684 10.4402 92.6684 9.91259V1.28684Z" fill="#3A332C"/>
<path d="M82.1867 15.4069V3.38209H83.8492V4.79979H83.9916C84.0903 4.6176 84.2326 4.40693 84.4186 4.1678C84.6046 3.92867 84.8627 3.71991 85.1929 3.54151C85.5231 3.35932 85.9597 3.26822 86.5024 3.26822C87.2084 3.26822 87.8385 3.44662 88.3927 3.80342C88.9469 4.16021 89.3815 4.67453 89.6965 5.34637C90.0154 6.01821 90.1748 6.8267 90.1748 7.77183C90.1748 8.71697 90.0173 9.52735 89.7022 10.203C89.3872 10.8748 88.9545 11.3929 88.4041 11.7573C87.8537 12.1179 87.2255 12.2982 86.5195 12.2982C85.9881 12.2982 85.5535 12.209 85.2157 12.0306C84.8817 11.8522 84.6198 11.6435 84.43 11.4043C84.2402 11.1652 84.0941 10.9526 83.9916 10.7667H83.8891V15.4069H82.1867ZM83.8549 7.75475C83.8549 8.36966 83.9441 8.90865 84.1225 9.37173C84.3009 9.8348 84.559 10.1973 84.8969 10.4592C85.2347 10.7173 85.6484 10.8464 86.1381 10.8464C86.6467 10.8464 87.0718 10.7116 87.4134 10.4421C87.755 10.1688 88.0131 9.79874 88.1877 9.33187C88.3661 8.865 88.4553 8.33929 88.4553 7.75475C88.4553 7.1778 88.368 6.65969 88.1934 6.20041C88.0226 5.74113 87.7645 5.37864 87.4191 5.11294C87.0775 4.84724 86.6505 4.71439 86.1381 4.71439C85.6446 4.71439 85.2271 4.84154 84.8855 5.09586C84.5477 5.35017 84.2914 5.70507 84.1168 6.16055C83.9422 6.61604 83.8549 7.14744 83.8549 7.75475Z" fill="#3A332C"/>
<path d="M78.1942 12.1273V3.38198H79.8966V12.1273H78.1942ZM79.0539 2.0326C78.7578 2.0326 78.5035 1.93392 78.291 1.73654C78.0822 1.53537 77.9778 1.29624 77.9778 1.01915C77.9778 0.738266 78.0822 0.499136 78.291 0.301759C78.5035 0.100586 78.7578 0 79.0539 0C79.35 0 79.6024 0.100586 79.8112 0.301759C80.0237 0.499136 80.13 0.738266 80.13 1.01915C80.13 1.29624 80.0237 1.53537 79.8112 1.73654C79.6024 1.93392 79.35 2.0326 79.0539 2.0326Z" fill="#3A332C"/>
<path d="M72.0408 12.1274V3.38205H73.6862V4.77128H73.7773C73.9367 4.30061 74.2176 3.93053 74.62 3.66103C75.0261 3.38774 75.4854 3.25109 75.9978 3.25109C76.1041 3.25109 76.2293 3.25489 76.3736 3.26248C76.5216 3.27007 76.6374 3.27956 76.7209 3.29095V4.91931C76.6526 4.90033 76.5311 4.87946 76.3565 4.85668C76.1819 4.83011 76.0073 4.81683 75.8327 4.81683C75.4304 4.81683 75.0717 4.90223 74.7566 5.07304C74.4454 5.24005 74.1986 5.47348 74.0164 5.77335C73.8343 6.06941 73.7432 6.40723 73.7432 6.7868V12.1274H72.0408Z" fill="#3A332C"/>
<path d="M66.6276 12.3039C65.7811 12.3039 65.0523 12.1122 64.4412 11.7289C63.8339 11.3417 63.3671 10.8084 63.0406 10.129C62.7142 9.44954 62.551 8.67142 62.551 7.79461C62.551 6.90641 62.718 6.1226 63.052 5.44316C63.386 4.75993 63.8567 4.22664 64.464 3.84327C65.0713 3.4599 65.7868 3.26822 66.6105 3.26822C67.2747 3.26822 67.8669 3.39158 68.3869 3.6383C68.9069 3.88123 69.3263 4.22284 69.6452 4.66314C69.9678 5.10345 70.1595 5.61777 70.2202 6.2061H68.5634C68.4723 5.79616 68.2635 5.44316 67.9371 5.1471C67.6145 4.85103 67.1817 4.703 66.639 4.703C66.1645 4.703 65.7489 4.82826 65.3921 5.07877C65.0391 5.3255 64.7639 5.6785 64.5665 6.13778C64.3691 6.59326 64.2704 7.13226 64.2704 7.75475C64.2704 8.39243 64.3672 8.94281 64.5608 9.40589C64.7544 9.86896 65.0277 10.2277 65.3807 10.482C65.7375 10.7363 66.1569 10.8634 66.639 10.8634C66.9616 10.8634 67.2539 10.8046 67.5158 10.6869C67.7815 10.5655 68.0035 10.3928 68.1819 10.1688C68.3641 9.94488 68.4913 9.67538 68.5634 9.36034H70.2202C70.1595 9.9259 69.9754 10.4307 69.6679 10.8748C69.3605 11.3189 68.9486 11.6681 68.4324 11.9224C67.92 12.1768 67.3184 12.3039 66.6276 12.3039Z" fill="#3A332C"/>
<path d="M60.9014 5.51718L59.3585 5.79047C59.294 5.59309 59.1915 5.40521 59.051 5.22681C58.9144 5.04841 58.7284 4.90227 58.4931 4.7884C58.2577 4.67453 57.9636 4.6176 57.6106 4.6176C57.1285 4.6176 56.7262 4.72577 56.4035 4.94213C56.0809 5.15469 55.9196 5.42988 55.9196 5.7677C55.9196 6.05997 56.0277 6.2953 56.2441 6.4737C56.4605 6.6521 56.8097 6.79823 57.2917 6.9121L58.6809 7.23094C59.4856 7.41693 60.0854 7.70351 60.4801 8.09067C60.8749 8.47784 61.0722 8.98077 61.0722 9.59947C61.0722 10.1233 60.9204 10.5901 60.6168 11.0001C60.3169 11.4062 59.8975 11.7251 59.3585 11.9566C58.8233 12.1881 58.2027 12.3039 57.4967 12.3039C56.5174 12.3039 55.7184 12.0951 55.0997 11.6776C54.481 11.2563 54.1014 10.6585 53.961 9.88415L55.6064 9.63363C55.7089 10.0625 55.9196 10.3871 56.2384 10.6072C56.5572 10.8236 56.9729 10.9318 57.4853 10.9318C58.0433 10.9318 58.4893 10.816 58.8233 10.5845C59.1573 10.3491 59.3243 10.0625 59.3243 9.72473C59.3243 9.45144 59.2218 9.2218 59.0169 9.03581C58.8157 8.84982 58.5063 8.70937 58.0888 8.61448L56.6085 8.28995C55.7924 8.10396 55.1889 7.80789 54.7979 7.40175C54.4108 6.99561 54.2172 6.48129 54.2172 5.85879C54.2172 5.34258 54.3614 4.89089 54.6499 4.50372C54.9384 4.11656 55.3369 3.8148 55.8456 3.59845C56.3542 3.3783 56.9368 3.26822 57.5935 3.26822C58.5386 3.26822 59.2826 3.47319 59.8254 3.88313C60.3681 4.28927 60.7268 4.83395 60.9014 5.51718Z" fill="#3A332C"/>
<path d="M48.7071 12.3039C47.8454 12.3039 47.1034 12.1198 46.4809 11.7516C45.8622 11.3797 45.3839 10.8577 45.0461 10.1859C44.7121 9.51027 44.5451 8.71886 44.5451 7.81169C44.5451 6.9159 44.7121 6.12639 45.0461 5.44316C45.3839 4.75993 45.8546 4.22664 46.4581 3.84327C47.0654 3.4599 47.7752 3.26822 48.5875 3.26822C49.0809 3.26822 49.5592 3.34983 50.0223 3.51304C50.4854 3.67626 50.901 3.93247 51.2692 4.28168C51.6374 4.63088 51.9277 5.08447 52.1403 5.64244C52.3528 6.19661 52.4591 6.87035 52.4591 7.66365V8.26717H45.5073V6.99181H50.7909C50.7909 6.54392 50.6998 6.14727 50.5176 5.80186C50.3354 5.45265 50.0792 5.17746 49.749 4.97629C49.4226 4.77512 49.0392 4.67453 48.5989 4.67453C48.1206 4.67453 47.7031 4.7922 47.3463 5.02753C46.9933 5.25907 46.72 5.56273 46.5264 5.9385C46.3366 6.31048 46.2417 6.71473 46.2417 7.15123V8.14761C46.2417 8.73215 46.3442 9.22939 46.5492 9.63932C46.758 10.0493 47.0483 10.3624 47.4203 10.5788C47.7923 10.7913 48.2269 10.8976 48.7241 10.8976C49.0468 10.8976 49.3409 10.8521 49.6066 10.761C49.8723 10.6661 50.102 10.5256 50.2956 10.3396C50.4891 10.1536 50.6372 9.924 50.7397 9.65071L52.3509 9.94108C52.2219 10.4155 51.9904 10.8312 51.6563 11.188C51.3261 11.541 50.9105 11.8162 50.4094 12.0135C49.9122 12.2071 49.3447 12.3039 48.7071 12.3039Z" fill="#3A332C"/>
<path d="M37.2786 12.1273H33.5037V0.466906H37.3981C38.5406 0.466906 39.5218 0.700342 40.3417 1.16722C41.1616 1.63029 41.7898 2.29644 42.2263 3.16566C42.6666 4.03108 42.8867 5.06921 42.8867 6.28004C42.8867 7.49467 42.6647 8.53849 42.2206 9.4115C41.7803 10.2845 41.1426 10.9564 40.3075 11.427C39.4725 11.8939 38.4628 12.1273 37.2786 12.1273ZM35.263 10.5901H37.1818C38.07 10.5901 38.8082 10.4231 39.3966 10.089C39.9849 9.75122 40.4252 9.26347 40.7175 8.62579C41.0097 7.98432 41.1559 7.2024 41.1559 6.28004C41.1559 5.36527 41.0097 4.58905 40.7175 3.95137C40.429 3.31369 39.9982 2.82974 39.425 2.49951C38.8519 2.16928 38.1402 2.00417 37.2899 2.00417H35.263V10.5901Z" fill="#3A332C"/>
<path d="M19.2242 12.1273V0.466906H20.9266V4.79971H21.0291C21.1278 4.61752 21.2701 4.40686 21.4561 4.16773C21.6421 3.9286 21.9002 3.71983 22.2305 3.54143C22.5607 3.35924 22.9972 3.26814 23.54 3.26814C24.246 3.26814 24.8761 3.44654 25.4302 3.80334C25.9844 4.16013 26.419 4.67445 26.7341 5.34629C27.0529 6.01814 27.2123 6.82662 27.2123 7.77176C27.2123 8.71689 27.0548 9.52727 26.7398 10.2029C26.4247 10.8748 25.992 11.3929 25.4416 11.7573C24.8912 12.1178 24.2631 12.2981 23.5571 12.2981C23.0257 12.2981 22.591 12.2089 22.2532 12.0305C21.9192 11.8521 21.6573 11.6434 21.4675 11.4043C21.2777 11.1651 21.1316 10.9526 21.0291 10.7666H20.8868V12.1273H19.2242ZM20.8925 7.75468C20.8925 8.36958 20.9817 8.90857 21.1601 9.37165C21.3385 9.83473 21.5966 10.1972 21.9344 10.4591C22.2722 10.7172 22.6859 10.8463 23.1756 10.8463C23.6842 10.8463 24.1093 10.7115 24.4509 10.442C24.7926 10.1687 25.0507 9.79867 25.2253 9.33179C25.4037 8.86492 25.4929 8.33922 25.4929 7.75468C25.4929 7.17773 25.4056 6.65961 25.231 6.20033C25.0602 5.74105 24.802 5.37856 24.4566 5.11286C24.115 4.84716 23.688 4.71431 23.1756 4.71431C22.6821 4.71431 22.2646 4.84147 21.923 5.09578C21.5852 5.35009 21.329 5.70499 21.1544 6.16048C20.9798 6.61596 20.8925 7.14736 20.8925 7.75468Z" fill="#3A332C"/>
<path d="M13.1109 12.3039C12.291 12.3039 11.5755 12.116 10.9644 11.7403C10.3533 11.3645 9.87882 10.8388 9.541 10.1631C9.20318 9.4875 9.03427 8.69799 9.03427 7.79461C9.03427 6.88743 9.20318 6.09413 9.541 5.4147C9.87882 4.73526 10.3533 4.20766 10.9644 3.83188C11.5755 3.45611 12.291 3.26822 13.1109 3.26822C13.9307 3.26822 14.6462 3.45611 15.2573 3.83188C15.8685 4.20766 16.3429 4.73526 16.6807 5.4147C17.0186 6.09413 17.1875 6.88743 17.1875 7.79461C17.1875 8.69799 17.0186 9.4875 16.6807 10.1631C16.3429 10.8388 15.8685 11.3645 15.2573 11.7403C14.6462 12.116 13.9307 12.3039 13.1109 12.3039ZM13.1166 10.8748C13.648 10.8748 14.0883 10.7344 14.4375 10.4535C14.7867 10.1726 15.0448 9.79874 15.2118 9.33187C15.3826 8.865 15.468 8.35068 15.468 7.78891C15.468 7.23094 15.3826 6.71852 15.2118 6.25165C15.0448 5.78098 14.7867 5.40331 14.4375 5.11863C14.0883 4.83395 13.648 4.69161 13.1166 4.69161C12.5814 4.69161 12.1373 4.83395 11.7843 5.11863C11.4351 5.40331 11.1751 5.78098 11.0042 6.25165C10.8372 6.71852 10.7537 7.23094 10.7537 7.78891C10.7537 8.35068 10.8372 8.865 11.0042 9.33187C11.1751 9.79874 11.4351 10.1726 11.7843 10.4535C12.1373 10.7344 12.5814 10.8748 13.1166 10.8748Z" fill="#3A332C"/>
<path d="M5.24947 0.466906H7.00309V8.73397C7.00309 9.48172 6.85506 10.1213 6.55899 10.6527C6.26672 11.1841 5.85489 11.5902 5.32349 11.8711C4.79209 12.1482 4.16959 12.2868 3.456 12.2868C2.79934 12.2868 2.2091 12.1672 1.6853 11.9281C1.16528 11.6889 0.753449 11.3416 0.449792 10.8861C0.149931 10.4269 0 9.86889 0 9.21223H1.74793C1.74793 9.53486 1.82194 9.81385 1.96998 10.0492C2.1218 10.2845 2.32867 10.4686 2.59057 10.6015C2.85627 10.7305 3.15993 10.795 3.50155 10.795C3.87353 10.795 4.18857 10.7172 4.44668 10.5616C4.70858 10.4022 4.90786 10.1687 5.0445 9.8613C5.18115 9.55384 5.24947 9.17807 5.24947 8.73397V0.466906Z" fill="#3A332C"/>
</svg>
