<svg width="17" height="17" viewBox="0 0 17 17" fill="none" xmlns="http://www.w3.org/2000/svg">
<path d="M14.1312 14.875C14.3437 14.875 14.5208 14.8042 14.6625 14.6625C14.8042 14.5208 14.875 14.3438 14.875 14.1313V11.2625C14.875 11.0972 14.8219 10.9525 14.7156 10.8283C14.6094 10.7041 14.4736 10.6245 14.3083 10.5896L11.8646 10.0938C11.6993 10.0701 11.531 10.085 11.3595 10.1384C11.1881 10.1917 11.0495 10.2713 10.9437 10.3771L9.27917 12.0417C8.38195 11.4986 7.56146 10.8552 6.81771 10.1115C6.07396 9.36771 5.45417 8.57083 4.95833 7.72083L6.65833 5.98542C6.76458 5.87917 6.83258 5.75804 6.86233 5.62204C6.89208 5.48604 6.89492 5.33564 6.87083 5.17083L6.41042 2.69167C6.38681 2.52639 6.31007 2.39062 6.18021 2.28437C6.05035 2.17812 5.90278 2.125 5.7375 2.125H2.86875C2.65625 2.125 2.47917 2.19583 2.3375 2.3375C2.19583 2.47917 2.125 2.65625 2.125 2.86875C2.125 4.39167 2.46453 5.87633 3.14358 7.32275C3.82264 8.76917 4.71986 10.0501 5.83525 11.1655C6.95064 12.2808 8.23154 13.1781 9.67796 13.8571C11.1244 14.5362 12.6088 14.8755 14.1312 14.875Z" fill="#8C52FE"/>
</svg>
