<svg width="149" height="149" viewBox="0 0 149 149" fill="none" xmlns="http://www.w3.org/2000/svg">
<path d="M74.5002 12.4167C57.4272 12.4167 43.4585 26.3855 43.4585 43.4584V55.8751H55.8752V43.4584C55.8752 33.2147 64.2564 24.8334 74.5002 24.8334C84.7439 24.8334 93.1252 33.2147 93.1252 43.4584V55.8751H105.542V43.4584C105.542 26.3855 91.5731 12.4167 74.5002 12.4167Z" fill="#424242" fill-opacity="0.8"/>
<path d="M111.75 136.583H37.2502C30.421 136.583 24.8335 130.996 24.8335 124.167V68.2917C24.8335 61.4625 30.421 55.875 37.2502 55.875H111.75C118.579 55.875 124.167 61.4625 124.167 68.2917V124.167C124.167 130.996 118.579 136.583 111.75 136.583Z" fill="#FB8C00" fill-opacity="0.8"/>
<path d="M74.5 105.542C79.6432 105.542 83.8125 101.372 83.8125 96.2292C83.8125 91.0861 79.6432 86.9167 74.5 86.9167C69.3568 86.9167 65.1875 91.0861 65.1875 96.2292C65.1875 101.372 69.3568 105.542 74.5 105.542Z" fill="#C76E00" fill-opacity="0.8"/>
</svg>
