<svg width="20" height="20" viewBox="0 0 20 20" fill="none" xmlns="http://www.w3.org/2000/svg">
<g clip-path="url(#clip0_94_1067)">
<path d="M5.83341 9.1665L9.16675 1.6665C9.82979 1.6665 10.4657 1.9299 10.9345 2.39874C11.4034 2.86758 11.6667 3.50346 11.6667 4.1665V7.49984H16.3834C16.625 7.4971 16.8643 7.54692 17.0847 7.64585C17.3051 7.74478 17.5014 7.89045 17.66 8.07277C17.8185 8.25508 17.9355 8.46969 18.0029 8.70171C18.0702 8.93374 18.0863 9.17763 18.0501 9.4165L16.9001 16.9165C16.8398 17.3139 16.6379 17.6762 16.3317 17.9365C16.0254 18.1968 15.6354 18.3377 15.2334 18.3332H5.83341M5.83341 9.1665V18.3332M5.83341 9.1665H3.33341C2.89139 9.1665 2.46746 9.3421 2.1549 9.65466C1.84234 9.96722 1.66675 10.3911 1.66675 10.8332V16.6665C1.66675 17.1085 1.84234 17.5325 2.1549 17.845C2.46746 18.1576 2.89139 18.3332 3.33341 18.3332H5.83341" stroke="white" stroke-width="2" stroke-linecap="round" stroke-linejoin="round"/>
</g>
<defs>
<clipPath id="clip0_94_1067">
<rect width="20" height="20" fill="white"/>
</clipPath>
</defs>
</svg>
