<svg width="38" height="38" viewBox="0 0 38 38" fill="none" xmlns="http://www.w3.org/2000/svg">
<path d="M30.0833 25.7765V17.4165L34.8333 12.6665L28.5 6.33317L23.75 11.0832H12.6667V9.49984H17.4167V3.1665H4.75V9.49984H9.5V18.9998H4.75V25.3332H9.5V33.2498H16.2767C16.553 33.7284 16.9497 34.1264 17.4275 34.4042C17.9052 34.6819 18.4474 34.8298 19 34.8332C19.5567 34.8365 20.1044 34.6931 20.5879 34.4173C21.0715 34.1415 21.4738 33.7431 21.7543 33.2623C22.0348 32.7814 22.1836 32.2352 22.1857 31.6785C22.1878 31.1218 22.0431 30.5744 21.7662 30.0915C21.4893 29.6086 21.0901 29.2072 20.6086 28.9277C20.1271 28.6483 19.5805 28.5007 19.0239 28.4999C18.4672 28.4991 17.9201 28.645 17.4378 28.9229C16.9555 29.2009 16.555 29.6011 16.2767 30.0832H12.6667V25.3332H17.4167V18.9998H12.6667V14.2498H23.75L26.9167 17.4165V25.7607C26.313 26.1092 25.8411 26.6472 25.5744 27.2913C25.3076 27.9353 25.2608 28.6493 25.4412 29.3227C25.6217 29.996 26.0192 30.591 26.5723 31.0154C27.1253 31.4397 27.8029 31.6697 28.5 31.6697C29.1971 31.6697 29.8747 31.4397 30.4277 31.0154C30.9808 30.591 31.3783 29.996 31.5588 29.3227C31.7392 28.6493 31.6924 27.9353 31.4256 27.2913C31.1589 26.6472 30.687 26.1092 30.0833 25.7607V25.7765ZM6.33333 7.9165V4.74984H15.8333V7.9165H6.33333ZM19 30.0832C19.3132 30.0832 19.6193 30.176 19.8797 30.35C20.14 30.524 20.343 30.7713 20.4628 31.0606C20.5826 31.3499 20.614 31.6683 20.5529 31.9754C20.4918 32.2825 20.341 32.5647 20.1196 32.7861C19.8982 33.0075 19.616 33.1583 19.3089 33.2194C19.0018 33.2805 18.6834 33.2492 18.3941 33.1293C18.1048 33.0095 17.8575 32.8065 17.6835 32.5462C17.5095 32.2858 17.4167 31.9797 17.4167 31.6665C17.4167 31.2466 17.5835 30.8438 17.8804 30.5469C18.1773 30.25 18.5801 30.0832 19 30.0832ZM15.8333 20.5832V23.7498H6.33333V20.5832H15.8333ZM28.5 8.56567L32.6008 12.6665L28.5 16.7673L24.3992 12.6665L28.5 8.56567ZM28.5 30.0832C28.1868 30.0832 27.8807 29.9903 27.6203 29.8163C27.36 29.6424 27.157 29.3951 27.0372 29.1058C26.9174 28.8164 26.886 28.4981 26.9471 28.1909C27.0082 27.8838 27.159 27.6017 27.3804 27.3802C27.6018 27.1588 27.884 27.008 28.1911 26.9469C28.4982 26.8858 28.8166 26.9172 29.1059 27.037C29.3952 27.1569 29.6425 27.3598 29.8165 27.6202C29.9905 27.8806 30.0833 28.1867 30.0833 28.4998C30.0833 28.9198 29.9165 29.3225 29.6196 29.6194C29.3227 29.9164 28.9199 30.0832 28.5 30.0832Z" fill="white"/>
</svg>
