<svg width="339" height="14" viewBox="0 0 339 14" fill="none" xmlns="http://www.w3.org/2000/svg">
<path d="M334.118 5.91859V10.522H332.942V2.8696H334.078V4.06528H334.177C334.357 3.67668 334.629 3.36448 334.995 3.12866C335.36 2.88953 335.831 2.76996 336.409 2.76996C336.928 2.76996 337.381 2.87624 337.769 3.08881C338.158 3.29805 338.46 3.6169 338.676 4.04535C338.892 4.47049 339 5.00854 339 5.65953V10.522H337.824V5.73924C337.824 5.13808 337.668 4.66977 337.356 4.33431C337.044 3.99553 336.615 3.82614 336.071 3.82614C335.695 3.82614 335.36 3.90752 335.064 4.07026C334.772 4.23301 334.541 4.47049 334.372 4.78269C334.202 5.0949 334.118 5.47353 334.118 5.91859Z" fill="#3A332C"/>
<path d="M327.68 10.6814C326.989 10.6814 326.383 10.517 325.861 10.1882C325.343 9.85937 324.938 9.39936 324.646 8.80816C324.357 8.21696 324.212 7.52612 324.212 6.73564C324.212 5.93852 324.357 5.2427 324.646 4.64818C324.938 4.05366 325.343 3.59199 325.861 3.26318C326.383 2.93436 326.989 2.76996 327.68 2.76996C328.371 2.76996 328.975 2.93436 329.493 3.26318C330.015 3.59199 330.42 4.05366 330.709 4.64818C331.001 5.2427 331.147 5.93852 331.147 6.73564C331.147 7.52612 331.001 8.21696 330.709 8.80816C330.42 9.39936 330.015 9.85937 329.493 10.1882C328.975 10.517 328.371 10.6814 327.68 10.6814ZM327.68 9.62521C328.204 9.62521 328.636 9.4907 328.975 9.22167C329.314 8.95264 329.565 8.59892 329.727 8.1605C329.89 7.72208 329.971 7.24713 329.971 6.73564C329.971 6.22416 329.89 5.74754 329.727 5.3058C329.565 4.86407 329.314 4.50702 328.975 4.23467C328.636 3.96232 328.204 3.82614 327.68 3.82614C327.155 3.82614 326.723 3.96232 326.384 4.23467C326.046 4.50702 325.795 4.86407 325.632 5.3058C325.469 5.74754 325.388 6.22416 325.388 6.73564C325.388 7.24713 325.469 7.72208 325.632 8.1605C325.795 8.59892 326.046 8.95264 326.384 9.22167C326.723 9.4907 327.155 9.62521 327.68 9.62521Z" fill="#3A332C"/>
<path d="M322.662 4.58341L321.606 4.88233C321.539 4.7063 321.441 4.53525 321.312 4.36918C321.185 4.1998 321.013 4.0603 320.793 3.9507C320.574 3.84109 320.294 3.78629 319.951 3.78629C319.483 3.78629 319.093 3.89423 318.781 4.11012C318.472 4.32269 318.317 4.59338 318.317 4.92219C318.317 5.21447 318.424 5.4453 318.636 5.61469C318.849 5.78408 319.181 5.92523 319.633 6.03816L320.769 6.31715C321.453 6.48322 321.963 6.7373 322.298 7.0794C322.633 7.41818 322.801 7.85494 322.801 8.38967C322.801 8.82809 322.675 9.22001 322.423 9.56543C322.173 9.91085 321.825 10.1832 321.376 10.3825C320.928 10.5818 320.406 10.6814 319.812 10.6814C319.031 10.6814 318.385 10.512 317.874 10.1732C317.362 9.83446 317.039 9.33958 316.902 8.68859L318.018 8.4096C318.125 8.82145 318.326 9.13033 318.621 9.33626C318.92 9.54218 319.31 9.64514 319.792 9.64514C320.34 9.64514 320.775 9.52889 321.097 9.2964C321.423 9.06058 321.586 8.77827 321.586 8.44946C321.586 8.18375 321.493 7.96122 321.307 7.78187C321.121 7.59919 320.835 7.46302 320.45 7.37334L319.174 7.07442C318.473 6.90835 317.959 6.65095 317.63 6.30221C317.304 5.95014 317.142 5.51007 317.142 4.98197C317.142 4.5502 317.263 4.16824 317.505 3.83611C317.751 3.50397 318.085 3.24325 318.507 3.05393C318.932 2.86462 319.413 2.76996 319.951 2.76996C320.709 2.76996 321.303 2.93602 321.735 3.26816C322.17 3.60029 322.479 4.03871 322.662 4.58341Z" fill="#3A332C"/>
<path d="M312.021 10.5221V2.86971H313.157V4.02554H313.237C313.376 3.6469 313.629 3.33968 313.994 3.10386C314.359 2.86805 314.771 2.75014 315.23 2.75014C315.316 2.75014 315.424 2.7518 315.553 2.75512C315.683 2.75844 315.781 2.76343 315.847 2.77007V3.96575C315.808 3.95579 315.716 3.94084 315.573 3.92091C315.434 3.89767 315.286 3.88604 315.13 3.88604C314.758 3.88604 314.426 3.96409 314.134 4.1202C313.845 4.27298 313.615 4.48554 313.446 4.75789C313.28 5.02692 313.197 5.33415 313.197 5.67957V10.5221H312.021Z" fill="#3A332C"/>
<path d="M307.064 10.6814C306.327 10.6814 305.691 10.5187 305.156 10.1932C304.625 9.86435 304.214 9.406 303.925 8.81813C303.64 8.22693 303.497 7.53941 303.497 6.75557C303.497 5.97173 303.64 5.28089 303.925 4.68305C304.214 4.08189 304.616 3.61358 305.131 3.27812C305.649 2.93935 306.254 2.76996 306.945 2.76996C307.343 2.76996 307.737 2.83638 308.125 2.96924C308.514 3.10209 308.868 3.31798 309.186 3.6169C309.505 3.9125 309.759 4.30442 309.949 4.79266C310.138 5.28089 310.233 5.88206 310.233 6.59615V7.09435H304.334V6.07802H309.037C309.037 5.64624 308.951 5.26097 308.778 4.92219C308.609 4.58341 308.366 4.31604 308.051 4.12008C307.738 3.92412 307.37 3.82614 306.945 3.82614C306.476 3.82614 306.071 3.94239 305.729 4.17489C305.39 4.40406 305.129 4.70298 304.947 5.07165C304.764 5.44032 304.673 5.83556 304.673 6.25737V6.93492C304.673 7.51284 304.772 8.00274 304.972 8.40462C305.174 8.80318 305.455 9.10708 305.814 9.31633C306.172 9.52225 306.589 9.62521 307.064 9.62521C307.373 9.62521 307.652 9.58204 307.901 9.49568C308.154 9.406 308.371 9.27315 308.554 9.09712C308.736 8.91777 308.878 8.69524 308.977 8.42953L310.113 8.74838C309.994 9.13365 309.793 9.47243 309.51 9.76471C309.228 10.0537 308.879 10.2795 308.464 10.4423C308.049 10.6017 307.582 10.6814 307.064 10.6814Z" fill="#3A332C"/>
<path d="M295.307 13.3916V2.8696H296.442V4.08521H296.582C296.668 3.95236 296.788 3.78297 296.941 3.57704C297.097 3.3678 297.319 3.1818 297.608 3.01906C297.9 2.85299 298.296 2.76996 298.794 2.76996C299.438 2.76996 300.006 2.93104 300.498 3.25321C300.989 3.57538 301.373 4.03207 301.649 4.62327C301.924 5.21447 302.062 5.91195 302.062 6.71572C302.062 7.52612 301.924 8.22859 301.649 8.82311C301.373 9.41431 300.991 9.87265 300.503 10.1981C300.015 10.5203 299.452 10.6814 298.814 10.6814C298.322 10.6814 297.929 10.6 297.633 10.4373C297.338 10.2712 297.11 10.0836 296.951 9.87431C296.791 9.66175 296.668 9.48572 296.582 9.34622H296.482V13.3916H295.307ZM296.462 6.69579C296.462 7.2737 296.547 7.78353 296.716 8.22527C296.886 8.66368 297.133 9.00744 297.459 9.25654C297.784 9.50232 298.183 9.62521 298.654 9.62521C299.146 9.62521 299.556 9.49568 299.885 9.23662C300.217 8.97423 300.466 8.62217 300.632 8.18043C300.802 7.73537 300.886 7.24049 300.886 6.69579C300.886 6.15773 300.803 5.67281 300.637 5.24104C300.475 4.80594 300.227 4.46218 299.895 4.20976C299.566 3.95402 299.153 3.82614 298.654 3.82614C298.176 3.82614 297.774 3.94737 297.449 4.18983C297.123 4.42897 296.878 4.76443 296.711 5.1962C296.545 5.62465 296.462 6.12452 296.462 6.69579Z" fill="#3A332C"/>
<path d="M285.537 10.6814C284.899 10.6814 284.336 10.5203 283.848 10.1981C283.36 9.87263 282.978 9.41429 282.702 8.82309C282.426 8.22857 282.289 7.5261 282.289 6.71569C282.289 5.91193 282.426 5.21444 282.702 4.62325C282.978 4.03205 283.361 3.57536 283.853 3.25319C284.344 2.93102 284.912 2.76994 285.557 2.76994C286.055 2.76994 286.449 2.85297 286.737 3.01904C287.03 3.18178 287.252 3.36778 287.405 3.57702C287.561 3.78295 287.682 3.95233 287.769 4.08519H287.868V0.318782H289.044V10.522H287.908V9.3462H287.769C287.682 9.4857 287.56 9.66173 287.4 9.87429C287.241 10.0835 287.013 10.2712 286.718 10.4373C286.422 10.6 286.028 10.6814 285.537 10.6814ZM285.696 9.62519C286.168 9.62519 286.566 9.5023 286.892 9.25652C287.217 9.00742 287.465 8.66366 287.634 8.22524C287.804 7.78351 287.888 7.27368 287.888 6.69576C287.888 6.12449 287.805 5.62463 287.639 5.19618C287.473 4.7644 287.227 4.42895 286.902 4.18981C286.576 3.94735 286.175 3.82612 285.696 3.82612C285.198 3.82612 284.783 3.95399 284.451 4.20974C284.122 4.46216 283.874 4.80592 283.708 5.24102C283.546 5.67279 283.464 6.15771 283.464 6.69576C283.464 7.24047 283.547 7.73535 283.713 8.18041C283.883 8.62214 284.132 8.97421 284.461 9.23659C284.793 9.49566 285.205 9.62519 285.696 9.62519Z" fill="#3A332C"/>
<path d="M277.69 10.6814C276.953 10.6814 276.317 10.5187 275.782 10.1932C275.251 9.86435 274.84 9.406 274.551 8.81813C274.266 8.22693 274.123 7.53941 274.123 6.75557C274.123 5.97173 274.266 5.28089 274.551 4.68305C274.84 4.08189 275.242 3.61358 275.757 3.27812C276.275 2.93935 276.88 2.76996 277.571 2.76996C277.969 2.76996 278.363 2.83638 278.751 2.96924C279.14 3.10209 279.494 3.31798 279.812 3.6169C280.131 3.9125 280.385 4.30442 280.575 4.79266C280.764 5.28089 280.859 5.88206 280.859 6.59615V7.09435H274.96V6.07802H279.663C279.663 5.64624 279.577 5.26097 279.404 4.92219C279.235 4.58341 278.992 4.31604 278.677 4.12008C278.364 3.92412 277.996 3.82614 277.571 3.82614C277.102 3.82614 276.697 3.94239 276.355 4.17489C276.016 4.40406 275.755 4.70298 275.573 5.07165C275.39 5.44032 275.299 5.83556 275.299 6.25737V6.93492C275.299 7.51284 275.398 8.00274 275.598 8.40462C275.8 8.80318 276.081 9.10708 276.44 9.31633C276.798 9.52225 277.215 9.62521 277.69 9.62521C277.999 9.62521 278.278 9.58204 278.527 9.49568C278.78 9.406 278.997 9.27315 279.18 9.09712C279.362 8.91777 279.504 8.69524 279.603 8.42953L280.739 8.74838C280.62 9.13365 280.419 9.47243 280.136 9.76471C279.854 10.0537 279.505 10.2795 279.09 10.4423C278.675 10.6017 278.208 10.6814 277.69 10.6814Z" fill="#3A332C"/>
<path d="M268.658 10.6814C268.02 10.6814 267.457 10.5203 266.969 10.1981C266.481 9.87263 266.099 9.41429 265.823 8.82309C265.547 8.22857 265.409 7.5261 265.409 6.71569C265.409 5.91193 265.547 5.21444 265.823 4.62325C266.099 4.03205 266.482 3.57536 266.974 3.25319C267.465 2.93102 268.033 2.76994 268.678 2.76994C269.176 2.76994 269.569 2.85297 269.858 3.01904C270.151 3.18178 270.373 3.36778 270.526 3.57702C270.682 3.78295 270.803 3.95233 270.89 4.08519H270.989V0.318782H272.165V10.522H271.029V9.3462H270.89C270.803 9.4857 270.68 9.66173 270.521 9.87429C270.362 10.0835 270.134 10.2712 269.838 10.4373C269.543 10.6 269.149 10.6814 268.658 10.6814ZM268.817 9.62519C269.289 9.62519 269.687 9.5023 270.013 9.25652C270.338 9.00742 270.586 8.66366 270.755 8.22524C270.925 7.78351 271.009 7.27368 271.009 6.69576C271.009 6.12449 270.926 5.62463 270.76 5.19618C270.594 4.7644 270.348 4.42895 270.023 4.18981C269.697 3.94735 269.295 3.82612 268.817 3.82612C268.319 3.82612 267.904 3.95399 267.572 4.20974C267.243 4.46216 266.995 4.80592 266.829 5.24102C266.667 5.67279 266.585 6.15771 266.585 6.69576C266.585 7.24047 266.668 7.73535 266.834 8.18041C267.004 8.62214 267.253 8.97421 267.582 9.23659C267.914 9.49566 268.326 9.62519 268.817 9.62519Z" fill="#3A332C"/>
<path d="M258.737 5.91859V10.522H257.561V2.8696H258.697V4.06528H258.797C258.976 3.67668 259.249 3.36448 259.614 3.12866C259.979 2.88953 260.451 2.76996 261.029 2.76996C261.547 2.76996 262 2.87624 262.389 3.08881C262.778 3.29805 263.08 3.6169 263.296 4.04535C263.512 4.47049 263.62 5.00854 263.62 5.65953V10.522H262.444V5.73924C262.444 5.13808 262.288 4.66977 261.976 4.33431C261.663 3.99553 261.235 3.82614 260.69 3.82614C260.315 3.82614 259.979 3.90752 259.684 4.07026C259.392 4.23301 259.161 4.47049 258.991 4.78269C258.822 5.0949 258.737 5.47353 258.737 5.91859Z" fill="#3A332C"/>
<path d="M254.232 10.522V2.86964H255.408V10.522H254.232ZM254.83 1.59425C254.601 1.59425 254.403 1.51619 254.237 1.36009C254.074 1.20399 253.993 1.01633 253.993 0.797123C253.993 0.577914 254.074 0.390258 254.237 0.234155C254.403 0.0780516 254.601 0 254.83 0C255.059 0 255.255 0.0780516 255.418 0.234155C255.584 0.390258 255.667 0.577914 255.667 0.797123C255.667 1.01633 255.584 1.20399 255.418 1.36009C255.255 1.51619 255.059 1.59425 254.83 1.59425Z" fill="#3A332C"/>
<path d="M242.039 10.522V2.8696H243.175V4.06528H243.274C243.434 3.65676 243.691 3.33957 244.047 3.11372C244.402 2.88454 244.829 2.76996 245.327 2.76996C245.832 2.76996 246.252 2.88454 246.587 3.11372C246.926 3.33957 247.19 3.65676 247.379 4.06528H247.459C247.655 3.67004 247.949 3.35617 248.341 3.12368C248.733 2.88787 249.203 2.76996 249.751 2.76996C250.435 2.76996 250.995 2.98418 251.43 3.41264C251.865 3.83777 252.083 4.50038 252.083 5.40046V10.522H250.907V5.40046C250.907 4.83583 250.752 4.43229 250.443 4.18983C250.135 3.94737 249.771 3.82614 249.352 3.82614C248.814 3.82614 248.397 3.98889 248.102 4.31438C247.806 4.63655 247.658 5.04508 247.658 5.53996V10.522H246.463V5.28089C246.463 4.8458 246.322 4.4954 246.039 4.22969C245.757 3.96066 245.393 3.82614 244.948 3.82614C244.643 3.82614 244.357 3.90752 244.091 4.07026C243.829 4.23301 243.616 4.45886 243.454 4.74782C243.294 5.03345 243.215 5.36393 243.215 5.73924V10.522H242.039Z" fill="#3A332C"/>
<path d="M236.325 2.86973V3.86613H232.359V2.86973H236.325ZM233.515 1.03635H234.69V8.33002C234.69 8.66216 234.739 8.91126 234.835 9.07733C234.935 9.24007 235.061 9.34968 235.214 9.40614C235.37 9.45928 235.534 9.48585 235.707 9.48585C235.836 9.48585 235.943 9.47921 236.026 9.46592C236.109 9.44932 236.175 9.43603 236.225 9.42607L236.464 10.4823C236.384 10.5121 236.273 10.542 236.13 10.5719C235.987 10.6051 235.806 10.6218 235.587 10.6218C235.255 10.6218 234.93 10.5503 234.611 10.4075C234.295 10.2647 234.033 10.0472 233.824 9.75488C233.618 9.4626 233.515 9.09393 233.515 8.64887V1.03635Z" fill="#3A332C"/>
<path d="M225.966 5.91859V10.522H224.79V2.8696H225.926V4.06528H226.025C226.205 3.67668 226.477 3.36448 226.842 3.12866C227.208 2.88953 227.679 2.76996 228.257 2.76996C228.775 2.76996 229.229 2.87624 229.617 3.08881C230.006 3.29805 230.308 3.6169 230.524 4.04535C230.74 4.47049 230.848 5.00854 230.848 5.65953V10.522H229.672V5.73924C229.672 5.13808 229.516 4.66977 229.204 4.33431C228.892 3.99553 228.463 3.82614 227.918 3.82614C227.543 3.82614 227.208 3.90752 226.912 4.07026C226.62 4.23301 226.389 4.47049 226.22 4.78269C226.05 5.0949 225.966 5.47353 225.966 5.91859Z" fill="#3A332C"/>
<path d="M219.833 10.6814C219.095 10.6814 218.459 10.5187 217.925 10.1932C217.393 9.86435 216.983 9.406 216.694 8.81813C216.408 8.22693 216.266 7.53941 216.266 6.75557C216.266 5.97173 216.408 5.28089 216.694 4.68305C216.983 4.08189 217.385 3.61358 217.9 3.27812C218.418 2.93935 219.022 2.76996 219.713 2.76996C220.112 2.76996 220.505 2.83638 220.894 2.96924C221.282 3.10209 221.636 3.31798 221.955 3.6169C222.274 3.9125 222.528 4.30442 222.717 4.79266C222.907 5.28089 223.001 5.88206 223.001 6.59615V7.09435H217.103V6.07802H221.806C221.806 5.64624 221.719 5.26097 221.547 4.92219C221.377 4.58341 221.135 4.31604 220.819 4.12008C220.507 3.92412 220.138 3.82614 219.713 3.82614C219.245 3.82614 218.84 3.94239 218.498 4.17489C218.159 4.40406 217.898 4.70298 217.715 5.07165C217.533 5.44032 217.441 5.83556 217.441 6.25737V6.93492C217.441 7.51284 217.541 8.00274 217.74 8.40462C217.943 8.80318 218.224 9.10708 218.582 9.31633C218.941 9.52225 219.358 9.62521 219.833 9.62521C220.142 9.62521 220.421 9.58204 220.67 9.49568C220.922 9.406 221.14 9.27315 221.322 9.09712C221.505 8.91777 221.646 8.69524 221.746 8.42953L222.882 8.74838C222.762 9.13365 222.561 9.47243 222.279 9.76471C221.997 10.0537 221.648 10.2795 221.233 10.4423C220.818 10.6017 220.351 10.6814 219.833 10.6814Z" fill="#3A332C"/>
<path d="M211.164 13.551C210.596 13.551 210.108 13.478 209.699 13.3318C209.291 13.189 208.95 12.9997 208.678 12.7639C208.409 12.5314 208.195 12.2823 208.035 12.0166L208.972 11.359C209.078 11.4985 209.213 11.6579 209.375 11.8372C209.538 12.0199 209.761 12.1777 210.043 12.3105C210.329 12.4467 210.702 12.5148 211.164 12.5148C211.782 12.5148 212.292 12.3653 212.693 12.0664C213.095 11.7675 213.296 11.2992 213.296 10.6615V9.10708H213.197C213.11 9.24658 212.987 9.41929 212.828 9.62521C212.672 9.82782 212.446 10.0088 212.15 10.1683C211.858 10.3244 211.463 10.4024 210.965 10.4024C210.347 10.4024 209.792 10.2563 209.301 9.96399C208.812 9.67171 208.426 9.24658 208.14 8.68859C207.858 8.13061 207.716 7.45305 207.716 6.65593C207.716 5.87209 207.854 5.18956 208.13 4.60832C208.406 4.02376 208.789 3.57206 209.281 3.25321C209.772 2.93104 210.34 2.76996 210.985 2.76996C211.483 2.76996 211.878 2.85299 212.17 3.01906C212.466 3.1818 212.692 3.3678 212.848 3.57704C213.007 3.78297 213.13 3.95236 213.217 4.08521H213.336V2.8696H214.472V10.7412C214.472 11.3988 214.323 11.9335 214.024 12.3454C213.728 12.7606 213.33 13.0645 212.828 13.2571C212.33 13.4531 211.775 13.551 211.164 13.551ZM211.124 9.34622C211.596 9.34622 211.994 9.23828 212.32 9.02239C212.645 8.8065 212.893 8.49596 213.062 8.09075C213.232 7.68555 213.316 7.20063 213.316 6.636C213.316 6.08466 213.233 5.59808 213.067 5.17627C212.901 4.75446 212.655 4.42399 212.33 4.18485C212.004 3.94571 211.602 3.82614 211.124 3.82614C210.626 3.82614 210.211 3.95236 209.879 4.20478C209.55 4.4572 209.302 4.79598 209.136 5.22111C208.974 5.64624 208.892 6.11787 208.892 6.636C208.892 7.16742 208.975 7.63739 209.141 8.04591C209.311 8.45112 209.56 8.76997 209.889 9.00246C210.221 9.23163 210.633 9.34622 211.124 9.34622Z" fill="#3A332C"/>
<path d="M204.746 10.522V2.86964H205.922V10.522H204.746ZM205.344 1.59425C205.114 1.59425 204.917 1.51619 204.751 1.36009C204.588 1.20399 204.507 1.01633 204.507 0.797123C204.507 0.577914 204.588 0.390258 204.751 0.234155C204.917 0.0780516 205.114 0 205.344 0C205.573 0 205.769 0.0780516 205.931 0.234155C206.098 0.390258 206.181 0.577914 206.181 0.797123C206.181 1.01633 206.098 1.20399 205.931 1.36009C205.769 1.51619 205.573 1.59425 205.344 1.59425Z" fill="#3A332C"/>
<path d="M202.592 0.318782V10.522H201.417V0.318782H202.592Z" fill="#3A332C"/>
<path d="M199.263 0.318782V10.522H198.087V0.318782H199.263Z" fill="#3A332C"/>
<path d="M193.13 10.6814C192.393 10.6814 191.757 10.5187 191.222 10.1932C190.691 9.86435 190.281 9.406 189.992 8.81813C189.706 8.22693 189.563 7.53941 189.563 6.75557C189.563 5.97173 189.706 5.28089 189.992 4.68305C190.281 4.08189 190.683 3.61358 191.197 3.27812C191.715 2.93935 192.32 2.76996 193.011 2.76996C193.409 2.76996 193.803 2.83638 194.192 2.96924C194.58 3.10209 194.934 3.31798 195.253 3.6169C195.572 3.9125 195.826 4.30442 196.015 4.79266C196.204 5.28089 196.299 5.88206 196.299 6.59615V7.09435H190.4V6.07802H195.103C195.103 5.64624 195.017 5.26097 194.844 4.92219C194.675 4.58341 194.432 4.31604 194.117 4.12008C193.805 3.92412 193.436 3.82614 193.011 3.82614C192.542 3.82614 192.137 3.94239 191.795 4.17489C191.456 4.40406 191.196 4.70298 191.013 5.07165C190.83 5.44032 190.739 5.83556 190.739 6.25737V6.93492C190.739 7.51284 190.839 8.00274 191.038 8.40462C191.241 8.80318 191.521 9.10708 191.88 9.31633C192.239 9.52225 192.655 9.62521 193.13 9.62521C193.439 9.62521 193.718 9.58204 193.967 9.49568C194.22 9.406 194.437 9.27315 194.62 9.09712C194.803 8.91777 194.944 8.69524 195.043 8.42953L196.179 8.74838C196.06 9.13365 195.859 9.47243 195.577 9.76471C195.294 10.0537 194.945 10.2795 194.53 10.4423C194.115 10.6017 193.648 10.6814 193.13 10.6814Z" fill="#3A332C"/>
<path d="M188.236 2.86973V3.86613H184.27V2.86973H188.236ZM185.426 1.03635H186.602V8.33002C186.602 8.66216 186.65 8.91126 186.746 9.07733C186.846 9.24007 186.972 9.34968 187.125 9.40614C187.281 9.45928 187.445 9.48585 187.618 9.48585C187.747 9.48585 187.854 9.47921 187.937 9.46592C188.02 9.44932 188.086 9.43603 188.136 9.42607L188.375 10.4823C188.295 10.5121 188.184 10.542 188.041 10.5719C187.898 10.6051 187.717 10.6218 187.498 10.6218C187.166 10.6218 186.841 10.5503 186.522 10.4075C186.206 10.2647 185.944 10.0472 185.735 9.75488C185.529 9.4626 185.426 9.09393 185.426 8.64887V1.03635Z" fill="#3A332C"/>
<path d="M177.877 5.91859V10.522H176.701V2.8696H177.837V4.06528H177.936C178.116 3.67668 178.388 3.36448 178.753 3.12866C179.119 2.88953 179.59 2.76996 180.168 2.76996C180.686 2.76996 181.14 2.87624 181.528 3.08881C181.917 3.29805 182.219 3.6169 182.435 4.04535C182.651 4.47049 182.759 5.00854 182.759 5.65953V10.522H181.583V5.73924C181.583 5.13808 181.427 4.66977 181.115 4.33431C180.803 3.99553 180.374 3.82614 179.83 3.82614C179.454 3.82614 179.119 3.90752 178.823 4.07026C178.531 4.23301 178.3 4.47049 178.131 4.78269C177.961 5.0949 177.877 5.47353 177.877 5.91859Z" fill="#3A332C"/>
<path d="M173.372 10.522V2.86964H174.547V10.522H173.372ZM173.969 1.59425C173.74 1.59425 173.543 1.51619 173.376 1.36009C173.214 1.20399 173.132 1.01633 173.132 0.797123C173.132 0.577914 173.214 0.390258 173.376 0.234155C173.543 0.0780516 173.74 0 173.969 0C174.199 0 174.394 0.0780516 174.557 0.234155C174.723 0.390258 174.806 0.577914 174.806 0.797123C174.806 1.01633 174.723 1.20399 174.557 1.36009C174.394 1.51619 174.199 1.59425 173.969 1.59425Z" fill="#3A332C"/>
<path d="M163.602 10.6814C162.964 10.6814 162.401 10.5203 161.913 10.1981C161.425 9.87263 161.043 9.41429 160.767 8.82309C160.491 8.22857 160.354 7.5261 160.354 6.71569C160.354 5.91193 160.491 5.21444 160.767 4.62325C161.043 4.03205 161.426 3.57536 161.918 3.25319C162.41 2.93102 162.978 2.76994 163.622 2.76994C164.12 2.76994 164.514 2.85297 164.803 3.01904C165.095 3.18178 165.317 3.36778 165.47 3.57702C165.626 3.78295 165.748 3.95233 165.834 4.08519H165.934V0.318782H167.109V10.522H165.973V9.3462H165.834C165.748 9.4857 165.625 9.66173 165.465 9.87429C165.306 10.0835 165.078 10.2712 164.783 10.4373C164.487 10.6 164.093 10.6814 163.602 10.6814ZM163.761 9.62519C164.233 9.62519 164.632 9.5023 164.957 9.25652C165.283 9.00742 165.53 8.66366 165.699 8.22524C165.869 7.78351 165.953 7.27368 165.953 6.69576C165.953 6.12449 165.87 5.62463 165.704 5.19618C165.538 4.7644 165.292 4.42895 164.967 4.18981C164.642 3.94735 164.24 3.82612 163.761 3.82612C163.263 3.82612 162.848 3.95399 162.516 4.20974C162.187 4.46216 161.94 4.80592 161.774 5.24102C161.611 5.67279 161.529 6.15771 161.529 6.69576C161.529 7.24047 161.612 7.73535 161.779 8.18041C161.948 8.62214 162.197 8.97421 162.526 9.23659C162.858 9.49566 163.27 9.62519 163.761 9.62519Z" fill="#3A332C"/>
<path d="M153.681 5.91859V10.522H152.506V2.8696H153.642V4.06528H153.741C153.921 3.67668 154.193 3.36448 154.558 3.12866C154.924 2.88953 155.395 2.76996 155.973 2.76996C156.491 2.76996 156.945 2.87624 157.333 3.08881C157.722 3.29805 158.024 3.6169 158.24 4.04535C158.456 4.47049 158.564 5.00854 158.564 5.65953V10.522H157.388V5.73924C157.388 5.13808 157.232 4.66977 156.92 4.33431C156.608 3.99553 156.179 3.82614 155.634 3.82614C155.259 3.82614 154.924 3.90752 154.628 4.07026C154.336 4.23301 154.105 4.47049 153.936 4.78269C153.766 5.0949 153.681 5.47353 153.681 5.91859Z" fill="#3A332C"/>
<path d="M146.852 10.7013C146.367 10.7013 145.927 10.61 145.532 10.4273C145.137 10.2413 144.823 9.97396 144.591 9.62521C144.358 9.27315 144.242 8.84802 144.242 8.34982C144.242 7.9114 144.328 7.55602 144.501 7.28367C144.674 7.00799 144.904 6.79211 145.193 6.636C145.482 6.4799 145.801 6.36365 146.15 6.28726C146.502 6.20755 146.856 6.14444 147.211 6.09794C147.676 6.03816 148.053 5.99332 148.342 5.96343C148.634 5.93022 148.847 5.87542 148.98 5.79902C149.116 5.72263 149.184 5.58978 149.184 5.40046V5.36061C149.184 4.86905 149.049 4.48709 148.78 4.21474C148.515 3.94239 148.111 3.80622 147.57 3.80622C147.008 3.80622 146.568 3.92911 146.25 4.17489C145.931 4.42067 145.707 4.68305 145.577 4.96204L144.461 4.56348C144.66 4.0985 144.926 3.73647 145.258 3.4774C145.594 3.21502 145.959 3.03234 146.354 2.92938C146.753 2.8231 147.145 2.76996 147.53 2.76996C147.776 2.76996 148.058 2.79985 148.377 2.85963C148.699 2.9161 149.01 3.034 149.309 3.21336C149.611 3.39271 149.862 3.6634 150.061 4.02543C150.26 4.38745 150.36 4.87237 150.36 5.48017V10.522H149.184V9.48572H149.124C149.044 9.65178 148.912 9.82948 148.726 10.0188C148.54 10.2081 148.292 10.3692 147.983 10.502C147.674 10.6349 147.297 10.7013 146.852 10.7013ZM147.032 9.64514C147.497 9.64514 147.889 9.5538 148.207 9.37113C148.53 9.18846 148.772 8.95264 148.935 8.66368C149.101 8.37473 149.184 8.07082 149.184 7.75197V6.67586C149.134 6.73564 149.025 6.79045 148.855 6.84027C148.689 6.88676 148.496 6.92828 148.277 6.96482C148.061 6.99803 147.85 7.02792 147.645 7.05449C147.442 7.07774 147.278 7.09767 147.151 7.11428C146.846 7.15413 146.56 7.2189 146.294 7.30857C146.032 7.39493 145.819 7.52612 145.657 7.70215C145.497 7.87486 145.418 8.11068 145.418 8.4096C145.418 8.81813 145.569 9.12701 145.871 9.33626C146.176 9.54218 146.563 9.64514 147.032 9.64514Z" fill="#3A332C"/>
<path d="M134.831 10.6814C134.193 10.6814 133.63 10.5203 133.142 10.1981C132.654 9.87263 132.272 9.41429 131.996 8.82309C131.72 8.22857 131.583 7.5261 131.583 6.71569C131.583 5.91193 131.72 5.21444 131.996 4.62325C132.272 4.03205 132.655 3.57536 133.147 3.25319C133.638 2.93102 134.206 2.76994 134.851 2.76994C135.349 2.76994 135.742 2.85297 136.031 3.01904C136.324 3.18178 136.546 3.36778 136.699 3.57702C136.855 3.78295 136.976 3.95233 137.063 4.08519H137.162V0.318782H138.338V10.522H137.202V9.3462H137.063C136.976 9.4857 136.853 9.66173 136.694 9.87429C136.535 10.0835 136.307 10.2712 136.012 10.4373C135.716 10.6 135.322 10.6814 134.831 10.6814ZM134.99 9.62519C135.462 9.62519 135.86 9.5023 136.186 9.25652C136.511 9.00742 136.759 8.66366 136.928 8.22524C137.098 7.78351 137.182 7.27368 137.182 6.69576C137.182 6.12449 137.099 5.62463 136.933 5.19618C136.767 4.7644 136.521 4.42895 136.196 4.18981C135.87 3.94735 135.468 3.82612 134.99 3.82612C134.492 3.82612 134.077 3.95399 133.745 4.20974C133.416 4.46216 133.168 4.80592 133.002 5.24102C132.84 5.67279 132.758 6.15771 132.758 6.69576C132.758 7.24047 132.841 7.73535 133.007 8.18041C133.177 8.62214 133.426 8.97421 133.755 9.23659C134.087 9.49566 134.499 9.62519 134.99 9.62519Z" fill="#3A332C"/>
<path d="M126.984 10.6814C126.247 10.6814 125.611 10.5187 125.076 10.1932C124.545 9.86435 124.134 9.406 123.845 8.81813C123.56 8.22693 123.417 7.53941 123.417 6.75557C123.417 5.97173 123.56 5.28089 123.845 4.68305C124.134 4.08189 124.536 3.61358 125.051 3.27812C125.569 2.93935 126.174 2.76996 126.865 2.76996C127.263 2.76996 127.657 2.83638 128.045 2.96924C128.434 3.10209 128.788 3.31798 129.106 3.6169C129.425 3.9125 129.679 4.30442 129.869 4.79266C130.058 5.28089 130.153 5.88206 130.153 6.59615V7.09435H124.254V6.07802H128.957C128.957 5.64624 128.871 5.26097 128.698 4.92219C128.529 4.58341 128.286 4.31604 127.971 4.12008C127.658 3.92412 127.29 3.82614 126.865 3.82614C126.396 3.82614 125.991 3.94239 125.649 4.17489C125.31 4.40406 125.049 4.70298 124.867 5.07165C124.684 5.44032 124.593 5.83556 124.593 6.25737V6.93492C124.593 7.51284 124.692 8.00274 124.892 8.40462C125.094 8.80318 125.375 9.10708 125.734 9.31633C126.092 9.52225 126.509 9.62521 126.984 9.62521C127.293 9.62521 127.572 9.58204 127.821 9.49568C128.074 9.406 128.291 9.27315 128.474 9.09712C128.656 8.91777 128.798 8.69524 128.897 8.42953L130.033 8.74838C129.914 9.13365 129.713 9.47243 129.43 9.76471C129.148 10.0537 128.799 10.2795 128.384 10.4423C127.969 10.6017 127.502 10.6814 126.984 10.6814Z" fill="#3A332C"/>
<path d="M121.622 0.318782V10.522H120.446V0.318782H121.622Z" fill="#3A332C"/>
<path d="M118.293 0.318782V10.522H117.117V0.318782H118.293Z" fill="#3A332C"/>
<path d="M113.788 10.522V2.86964H114.964V10.522H113.788ZM114.386 1.59425C114.156 1.59425 113.959 1.51619 113.793 1.36009C113.63 1.20399 113.549 1.01633 113.549 0.797123C113.549 0.577914 113.63 0.390258 113.793 0.234155C113.959 0.0780516 114.156 0 114.386 0C114.615 0 114.811 0.0780516 114.974 0.234155C115.14 0.390258 115.223 0.577914 115.223 0.797123C115.223 1.01633 115.14 1.20399 114.974 1.36009C114.811 1.51619 114.615 1.59425 114.386 1.59425Z" fill="#3A332C"/>
<path d="M107.253 7.73202L107.233 6.27728H107.472L110.82 2.86958H112.275L108.708 6.47656H108.608L107.253 7.73202ZM106.157 10.522V0.318782H107.333V10.522H106.157ZM111.019 10.522L108.03 6.73562L108.867 5.91857L112.514 10.522H111.019Z" fill="#3A332C"/>
<path d="M104.248 4.58341L103.191 4.88233C103.125 4.7063 103.027 4.53525 102.897 4.36918C102.771 4.1998 102.599 4.0603 102.379 3.9507C102.16 3.84109 101.879 3.78629 101.537 3.78629C101.069 3.78629 100.679 3.89423 100.367 4.11012C100.058 4.32269 99.9032 4.59338 99.9032 4.92219C99.9032 5.21447 100.01 5.4453 100.222 5.61469C100.435 5.78408 100.767 5.92523 101.218 6.03816L102.354 6.31715C103.039 6.48322 103.548 6.7373 103.884 7.0794C104.219 7.41818 104.387 7.85494 104.387 8.38967C104.387 8.82809 104.261 9.22001 104.008 9.56543C103.759 9.91085 103.411 10.1832 102.962 10.3825C102.514 10.5818 101.992 10.6814 101.398 10.6814C100.617 10.6814 99.9713 10.512 99.4598 10.1732C98.9484 9.83446 98.6245 9.33958 98.4883 8.68859L99.6043 8.4096C99.7106 8.82145 99.9115 9.13033 100.207 9.33626C100.506 9.54218 100.896 9.64514 101.378 9.64514C101.926 9.64514 102.361 9.52889 102.683 9.2964C103.009 9.06058 103.171 8.77827 103.171 8.44946C103.171 8.18375 103.078 7.96122 102.892 7.78187C102.706 7.59919 102.421 7.46302 102.036 7.37334L100.76 7.07442C100.059 6.90835 99.5445 6.65095 99.2157 6.30221C98.8902 5.95014 98.7275 5.51007 98.7275 4.98197C98.7275 4.5502 98.8487 4.16824 99.0912 3.83611C99.337 3.50397 99.6707 3.24325 100.093 3.05393C100.518 2.86462 100.999 2.76996 101.537 2.76996C102.295 2.76996 102.889 2.93602 103.321 3.26816C103.756 3.60029 104.065 4.03871 104.248 4.58341Z" fill="#3A332C"/>
<path d="M89.2279 10.7013C88.743 10.7013 88.3029 10.61 87.9076 10.4273C87.5124 10.2413 87.1985 9.97396 86.966 9.62521C86.7336 9.27315 86.6173 8.84802 86.6173 8.34982C86.6173 7.9114 86.7037 7.55602 86.8764 7.28367C87.0491 7.00799 87.2799 6.79211 87.5689 6.636C87.8578 6.4799 88.1767 6.36365 88.5254 6.28726C88.8775 6.20755 89.2312 6.14444 89.5866 6.09794C90.0516 6.03816 90.4285 5.99332 90.7175 5.96343C91.0098 5.93022 91.2224 5.87542 91.3552 5.79902C91.4914 5.72263 91.5595 5.58978 91.5595 5.40046V5.36061C91.5595 4.86905 91.425 4.48709 91.1559 4.21474C90.8902 3.94239 90.4867 3.80622 89.9453 3.80622C89.384 3.80622 88.9439 3.92911 88.6251 4.17489C88.3062 4.42067 88.082 4.68305 87.9525 4.96204L86.8365 4.56348C87.0358 4.0985 87.3015 3.73647 87.6336 3.4774C87.9691 3.21502 88.3344 3.03234 88.7297 2.92938C89.1282 2.8231 89.5202 2.76996 89.9054 2.76996C90.1512 2.76996 90.4335 2.79985 90.7524 2.85963C91.0746 2.9161 91.3851 3.034 91.684 3.21336C91.9863 3.39271 92.237 3.6634 92.4363 4.02543C92.6356 4.38745 92.7352 4.87237 92.7352 5.48017V10.522H91.5595V9.48572H91.4997C91.42 9.65178 91.2871 9.82948 91.1011 10.0188C90.9151 10.2081 90.6677 10.3692 90.3588 10.502C90.0499 10.6349 89.6729 10.7013 89.2279 10.7013ZM89.4072 9.64514C89.8722 9.64514 90.2641 9.5538 90.583 9.37113C90.9052 9.18846 91.1476 8.95264 91.3104 8.66368C91.4764 8.37473 91.5595 8.07082 91.5595 7.75197V6.67586C91.5097 6.73564 91.4 6.79045 91.2307 6.84027C91.0646 6.88676 90.872 6.92828 90.6527 6.96482C90.4369 6.99803 90.2259 7.02792 90.02 7.05449C89.8174 7.07774 89.653 7.09767 89.5268 7.11428C89.2212 7.15413 88.9356 7.2189 88.6699 7.30857C88.4075 7.39493 88.1949 7.52612 88.0322 7.70215C87.8728 7.87486 87.7931 8.11068 87.7931 8.4096C87.7931 8.81813 87.9442 9.12701 88.2464 9.33626C88.552 9.54218 88.9389 9.64514 89.4072 9.64514Z" fill="#3A332C"/>
<path d="M78.0731 10.6814C77.3358 10.6814 76.6998 10.5187 76.165 10.1932C75.6336 9.86435 75.2234 9.406 74.9345 8.81813C74.6488 8.22693 74.506 7.53941 74.506 6.75557C74.506 5.97173 74.6488 5.28089 74.9345 4.68305C75.2234 4.08189 75.6253 3.61358 76.1401 3.27812C76.6583 2.93935 77.2627 2.76996 77.9536 2.76996C78.3521 2.76996 78.7457 2.83638 79.1343 2.96924C79.5229 3.10209 79.8766 3.31798 80.1955 3.6169C80.5143 3.9125 80.7684 4.30442 80.9577 4.79266C81.1471 5.28089 81.2417 5.88206 81.2417 6.59615V7.09435H75.343V6.07802H80.046C80.046 5.64624 79.9597 5.26097 79.787 4.92219C79.6176 4.58341 79.3751 4.31604 79.0596 4.12008C78.7474 3.92412 78.3787 3.82614 77.9536 3.82614C77.4853 3.82614 77.0801 3.94239 76.738 4.17489C76.3992 4.40406 76.1385 4.70298 75.9558 5.07165C75.7731 5.44032 75.6818 5.83556 75.6818 6.25737V6.93492C75.6818 7.51284 75.7814 8.00274 75.9807 8.40462C76.1833 8.80318 76.464 9.10708 76.8227 9.31633C77.1814 9.52225 77.5982 9.62521 78.0731 9.62521C78.382 9.62521 78.661 9.58204 78.9101 9.49568C79.1625 9.406 79.3801 9.27315 79.5628 9.09712C79.7454 8.91777 79.8866 8.69524 79.9862 8.42953L81.1221 8.74838C81.0026 9.13365 80.8016 9.47243 80.5193 9.76471C80.237 10.0537 79.8883 10.2795 79.4731 10.4423C79.0579 10.6017 78.5913 10.6814 78.0731 10.6814Z" fill="#3A332C"/>
<path d="M66.3107 10.522V0.318782H67.4864V4.08519H67.586C67.6724 3.95233 67.792 3.78295 67.9448 3.57702C68.1009 3.36778 68.3234 3.18178 68.6123 3.01904C68.9046 2.85297 69.2999 2.76994 69.7981 2.76994C70.4424 2.76994 71.0104 2.93102 71.5019 3.25319C71.9935 3.57536 72.3771 4.03205 72.6528 4.62325C72.9284 5.21444 73.0663 5.91193 73.0663 6.71569C73.0663 7.5261 72.9284 8.22857 72.6528 8.82309C72.3771 9.41429 71.9951 9.87263 71.5069 10.1981C71.0187 10.5203 70.4557 10.6814 69.818 10.6814C69.3264 10.6814 68.9329 10.6 68.6373 10.4373C68.3417 10.2712 68.1141 10.0835 67.9547 9.87429C67.7953 9.66173 67.6724 9.4857 67.586 9.3462H67.4466V10.522H66.3107ZM67.4665 6.69576C67.4665 7.27368 67.5512 7.78351 67.7206 8.22524C67.89 8.66366 68.1374 9.00742 68.4629 9.25652C68.7884 9.5023 69.1869 9.62519 69.6586 9.62519C70.1501 9.62519 70.5603 9.49566 70.8891 9.23659C71.2213 8.97421 71.4704 8.62214 71.6364 8.18041C71.8058 7.73535 71.8905 7.24047 71.8905 6.69576C71.8905 6.15771 71.8075 5.67279 71.6414 5.24102C71.4787 4.80592 71.2312 4.46216 70.8991 4.20974C70.5703 3.95399 70.1568 3.82612 69.6586 3.82612C69.1803 3.82612 68.7784 3.94735 68.4529 4.18981C68.1274 4.42895 67.8816 4.7644 67.7156 5.19618C67.5495 5.62463 67.4665 6.12449 67.4665 6.69576Z" fill="#3A332C"/>
<path d="M60.4369 2.86973V3.86613H56.4712V2.86973H60.4369ZM57.627 1.03635H58.8028V8.33002C58.8028 8.66216 58.851 8.91126 58.9473 9.07733C59.0469 9.24007 59.1731 9.34968 59.3259 9.40614C59.482 9.45928 59.6464 9.48585 59.8191 9.48585C59.9487 9.48585 60.0549 9.47921 60.138 9.46592C60.221 9.44932 60.2874 9.43603 60.3373 9.42607L60.5764 10.4823C60.4967 10.5121 60.3854 10.542 60.2426 10.5719C60.0998 10.6051 59.9188 10.6218 59.6996 10.6218C59.3674 10.6218 59.0419 10.5503 58.7231 10.4075C58.4076 10.2647 58.1452 10.0472 57.9359 9.75488C57.73 9.4626 57.627 9.09393 57.627 8.64887V1.03635Z" fill="#3A332C"/>
<path d="M55.1996 4.58341L54.1434 4.88233C54.077 4.7063 53.979 4.53525 53.8495 4.36918C53.7233 4.1998 53.5505 4.0603 53.3313 3.9507C53.1121 3.84109 52.8315 3.78629 52.4894 3.78629C52.0211 3.78629 51.6308 3.89423 51.3186 4.11012C51.0097 4.32269 50.8553 4.59338 50.8553 4.92219C50.8553 5.21447 50.9616 5.4453 51.1741 5.61469C51.3867 5.78408 51.7188 5.92523 52.1705 6.03816L53.3064 6.31715C53.9906 6.48322 54.5005 6.7373 54.8359 7.0794C55.1714 7.41818 55.3391 7.85494 55.3391 8.38967C55.3391 8.82809 55.2129 9.22001 54.9605 9.56543C54.7114 9.91085 54.3626 10.1832 53.9142 10.3825C53.4659 10.5818 52.9444 10.6814 52.3499 10.6814C51.5694 10.6814 50.9234 10.512 50.4119 10.1732C49.9004 9.83446 49.5766 9.33958 49.4404 8.68859L50.5564 8.4096C50.6626 8.82145 50.8636 9.13033 51.1592 9.33626C51.4581 9.54218 51.8484 9.64514 52.33 9.64514C52.878 9.64514 53.3131 9.52889 53.6352 9.2964C53.9607 9.06058 54.1235 8.77827 54.1235 8.44946C54.1235 8.18375 54.0305 7.96122 53.8445 7.78187C53.6585 7.59919 53.3729 7.46302 52.9876 7.37334L51.7122 7.07442C51.0114 6.90835 50.4966 6.65095 50.1678 6.30221C49.8423 5.95014 49.6795 5.51007 49.6795 4.98197C49.6795 4.5502 49.8008 4.16824 50.0432 3.83611C50.289 3.50397 50.6228 3.24325 51.0446 3.05393C51.4697 2.86462 51.9513 2.76996 52.4894 2.76996C53.2466 2.76996 53.8412 2.93602 54.2729 3.26816C54.708 3.60029 55.0169 4.03871 55.1996 4.58341Z" fill="#3A332C"/>
<path d="M46.4498 7.39333V2.86965H47.6255V10.522H46.4498V9.22671H46.37C46.1907 9.6153 45.9117 9.94578 45.5331 10.2181C45.1544 10.4872 44.6762 10.6217 44.0982 10.6217C43.62 10.6217 43.1948 10.5171 42.8228 10.3078C42.4508 10.0952 42.1586 9.77639 41.946 9.35126C41.7334 8.9228 41.6272 8.38309 41.6272 7.7321V2.86965H42.8029V7.65239C42.8029 8.21038 42.959 8.65544 43.2712 8.98757C43.5868 9.31971 43.9886 9.48577 44.4769 9.48577C44.7692 9.48577 45.0664 9.41104 45.3687 9.26158C45.6742 9.11212 45.93 8.88295 46.1359 8.57406C46.3451 8.26518 46.4498 7.8716 46.4498 7.39333Z" fill="#3A332C"/>
<path d="M29.4337 10.522V2.8696H30.5696V4.06528H30.6692C30.8286 3.65676 31.086 3.33957 31.4414 3.11372C31.7968 2.88454 32.2236 2.76996 32.7218 2.76996C33.2266 2.76996 33.6468 2.88454 33.9823 3.11372C34.321 3.33957 34.5851 3.65676 34.7744 4.06528H34.8541C35.0501 3.67004 35.344 3.35617 35.7359 3.12368C36.1278 2.88787 36.5978 2.76996 37.1458 2.76996C37.83 2.76996 38.3897 2.98418 38.8248 3.41264C39.2599 3.83777 39.4774 4.50038 39.4774 5.40046V10.522H38.3017V5.40046C38.3017 4.83583 38.1472 4.43229 37.8383 4.18983C37.5294 3.94737 37.1658 3.82614 36.7473 3.82614C36.2092 3.82614 35.7924 3.98889 35.4968 4.31438C35.2012 4.63655 35.0534 5.04508 35.0534 5.53996V10.522H33.8577V5.28089C33.8577 4.8458 33.7165 4.4954 33.4342 4.22969C33.1519 3.96066 32.7882 3.82614 32.3432 3.82614C32.0376 3.82614 31.752 3.90752 31.4863 4.07026C31.2239 4.23301 31.0113 4.45886 30.8486 4.74782C30.6891 5.03345 30.6094 5.36393 30.6094 5.73924V10.522H29.4337Z" fill="#3A332C"/>
<path d="M22.1587 7.39333V2.86965H23.3344V10.522H22.1587V9.22671H22.079C21.8996 9.6153 21.6206 9.94578 21.242 10.2181C20.8634 10.4872 20.3851 10.6217 19.8072 10.6217C19.3289 10.6217 18.9038 10.5171 18.5318 10.3078C18.1598 10.0952 17.8675 9.77639 17.6549 9.35126C17.4424 8.9228 17.3361 8.38309 17.3361 7.7321V2.86965H18.5118V7.65239C18.5118 8.21038 18.6679 8.65544 18.9802 8.98757C19.2957 9.31971 19.6976 9.48577 20.1858 9.48577C20.4781 9.48577 20.7753 9.41104 21.0776 9.26158C21.3831 9.11212 21.6389 8.88295 21.8448 8.57406C22.0541 8.26518 22.1587 7.8716 22.1587 7.39333Z" fill="#3A332C"/>
<path d="M12.0739 10.6814C11.383 10.6814 10.7769 10.517 10.2554 10.1882C9.73731 9.85937 9.3321 9.39936 9.03983 8.80816C8.75087 8.21696 8.60639 7.52612 8.60639 6.73564C8.60639 5.93852 8.75087 5.2427 9.03983 4.64818C9.3321 4.05366 9.73731 3.59199 10.2554 3.26318C10.7769 2.93436 11.383 2.76996 12.0739 2.76996C12.7647 2.76996 13.3692 2.93436 13.8873 3.26318C14.4088 3.59199 14.814 4.05366 15.1029 4.64818C15.3952 5.2427 15.5414 5.93852 15.5414 6.73564C15.5414 7.52612 15.3952 8.21696 15.1029 8.80816C14.814 9.39936 14.4088 9.85937 13.8873 10.1882C13.3692 10.517 12.7647 10.6814 12.0739 10.6814ZM12.0739 9.62521C12.5986 9.62521 13.0304 9.4907 13.3692 9.22167C13.708 8.95264 13.9587 8.59892 14.1215 8.1605C14.2842 7.72208 14.3656 7.24713 14.3656 6.73564C14.3656 6.22416 14.2842 5.74754 14.1215 5.3058C13.9587 4.86407 13.708 4.50702 13.3692 4.23467C13.0304 3.96232 12.5986 3.82614 12.0739 3.82614C11.5491 3.82614 11.1173 3.96232 10.7786 4.23467C10.4398 4.50702 10.189 4.86407 10.0263 5.3058C9.86352 5.74754 9.78215 6.22416 9.78215 6.73564C9.78215 7.24713 9.86352 7.72208 10.0263 8.1605C10.189 8.59892 10.4398 8.95264 10.7786 9.22167C11.1173 9.4907 11.5491 9.62521 12.0739 9.62521Z" fill="#3A332C"/>
<path d="M0 0.318782H1.41489L4.24468 5.08159H4.36425L7.19403 0.318782H8.60893L4.92223 6.31713V10.522H3.68669V6.31713L0 0.318782Z" fill="#3A332C"/>
</svg>
