<svg width="58" height="58" viewBox="0 0 58 58" fill="none" xmlns="http://www.w3.org/2000/svg">
<path fill-rule="evenodd" clip-rule="evenodd" d="M29 5.79999C24.9422 5.79924 20.9552 6.8628 17.4369 8.8845C13.9186 10.9062 10.9921 13.8153 8.94946 17.3215C6.90685 20.8277 5.81957 24.8083 5.79615 28.8661C5.77274 32.9238 6.814 36.9167 8.81601 40.4462C10.1692 38.6876 11.9087 37.2637 13.9 36.2847C15.8912 35.3056 18.081 34.7976 20.3 34.7999H37.7C39.9189 34.7976 42.1087 35.3056 44.1 36.2847C46.0913 37.2637 47.8308 38.6876 49.1839 40.4462C51.1859 36.9167 52.2272 32.9238 52.2038 28.8661C52.1804 24.8083 51.0931 20.8277 49.0505 17.3215C47.0079 13.8153 44.0814 10.9062 40.5631 8.8845C37.0448 6.8628 33.0578 5.79924 29 5.79999ZM52.0346 46.6203C55.912 41.5655 58.0093 35.3706 57.9999 28.9999C57.9999 12.9833 45.0166 0 29 0C12.9833 0 3.26343e-05 12.9833 3.26343e-05 28.9999C-0.00954151 35.3706 2.08775 41.5656 5.96532 46.6203L5.95082 46.6725L6.98032 47.8702C9.70018 51.0501 13.0772 53.6024 16.8787 55.3511C20.6801 57.0999 24.8156 58.0036 29 57.9999C34.8792 58.0107 40.6214 56.2248 45.4574 52.8814C47.5191 51.4569 49.3886 49.7727 51.0196 47.8702L52.0491 46.6725L52.0346 46.6203ZM29 11.6C26.6926 11.6 24.4797 12.5166 22.8482 14.1481C21.2166 15.7797 20.3 17.9926 20.3 20.3C20.3 22.6073 21.2166 24.8202 22.8482 26.4518C24.4797 28.0833 26.6926 28.9999 29 28.9999C31.3074 28.9999 33.5202 28.0833 35.1518 26.4518C36.7834 24.8202 37.7 22.6073 37.7 20.3C37.7 17.9926 36.7834 15.7797 35.1518 14.1481C33.5202 12.5166 31.3074 11.6 29 11.6Z" fill="#8C8C8C"/>
</svg>
