<svg width="48" height="48" viewBox="0 0 48 48" fill="none" xmlns="http://www.w3.org/2000/svg">
<circle cx="24" cy="24" r="24" fill="#3A332C"/>
<path d="M32.1154 20.2847C31.6524 20.1825 31.1996 20.4626 31.1002 20.9127L29.3041 29.0488C28.8081 31.2955 26.5337 32.7056 24.2184 32.1944C21.9031 31.6833 20.4337 29.4468 20.9297 27.2001L23.0854 17.4352C23.3826 16.0887 24.7466 15.2418 26.1358 15.5484C27.525 15.8551 28.4057 17.1976 28.1084 18.5441L26.3115 26.684C26.2121 27.1341 25.7554 27.4133 25.2963 27.312C24.8371 27.2106 24.5404 26.7651 24.6397 26.315L26.0771 19.8038C26.1765 19.3537 25.8798 18.9082 25.4206 18.8068C24.9576 18.7046 24.5048 18.9846 24.4054 19.4347L22.968 25.9459C22.6699 27.2962 23.5514 28.6349 24.9406 28.9416C26.3298 29.2483 27.693 28.4051 27.9911 27.0548L29.7872 18.9187C30.2792 16.6711 28.8059 14.4337 26.4946 13.9235C24.1832 13.4132 21.9088 14.8233 21.4128 17.07L19.2571 26.8349C18.5624 29.9818 20.6253 33.1093 23.8589 33.8232C27.0925 34.537 30.2811 32.5647 30.975 29.4217L32.7719 21.2817C32.8713 20.8316 32.5785 20.387 32.1154 20.2847Z" fill="#8C8C8C"/>
</svg>
