<svg width="17" height="17" viewBox="0 0 17 17" fill="none" xmlns="http://www.w3.org/2000/svg">
<path d="M9.4878 3.87481C9.16351 3.83974 8.83401 3.81963 8.5 3.81463C7.04048 3.82111 5.52751 4.17612 4.0954 4.85639C3.03208 5.38229 1.99628 6.12472 1.09674 7.04052C0.654953 7.50802 0.0911058 8.18494 0 8.90715C0.0107667 9.53278 0.682168 10.305 1.09674 10.7738C1.94027 11.6536 2.94909 12.3748 4.0954 12.9579C4.13436 12.9769 4.17346 12.9955 4.21264 13.014L3.14912 14.8712L4.59419 15.7253L12.4059 2.12483L11.015 1.27472L9.4878 3.87481ZM12.7863 4.80243L11.7248 6.64207C12.2132 7.27648 12.503 8.05882 12.503 8.90715C12.503 11.0216 10.7107 12.7359 8.49895 12.7359C8.40334 12.7359 8.31068 12.7256 8.21672 12.7193L7.51427 13.9354C7.83823 13.97 8.16579 13.9953 8.49999 13.9997C9.9609 13.9931 11.473 13.634 12.9036 12.9579C13.9669 12.432 15.0037 11.6896 15.9032 10.7738C16.345 10.3063 16.9089 9.6294 17 8.90715C16.9892 8.28154 16.3178 7.50934 15.9032 7.04051C15.0597 6.16067 14.0499 5.43949 12.9036 4.85636C12.8649 4.83761 12.8253 4.82073 12.7863 4.80243ZM8.49897 5.07844C8.59595 5.07844 8.69217 5.08232 8.78741 5.08881L7.9646 6.51342C6.80982 6.74754 5.94336 7.73006 5.94336 8.90613C5.94336 9.20156 5.99777 9.4844 6.09796 9.74657C6.09807 9.74687 6.09784 9.74732 6.09796 9.74762L5.27306 11.1764C4.78359 10.5414 4.49486 9.75647 4.49486 8.90714C4.49487 6.79269 6.28728 5.07843 8.49897 5.07844ZM10.8927 8.08227L9.03852 11.2947C10.1871 11.0562 11.0473 10.0781 11.0473 8.90613C11.0473 8.61608 10.9894 8.34033 10.8927 8.08227Z" fill="#8C52FE"/>
</svg>
